<svg width="1280" height="484" viewBox="0 0 1280 484" fill="none" xmlns="http://www.w3.org/2000/svg">
<g clip-path="url(#clip0_150_4105)">
<path d="M1240 21H40C18.4609 21 1 38.4609 1 60V200C1 221.539 18.4609 239 40 239H1240C1261.54 239 1279 221.539 1279 200V60C1279 38.4609 1261.54 21 1240 21Z" stroke="#808080" stroke-width="2" stroke-dasharray="4 4"/>
<path d="M1240 245H40C18.4609 245 1 262.461 1 284V424C1 445.539 18.4609 463 40 463H1240C1261.54 463 1279 445.539 1279 424V284C1279 262.461 1261.54 245 1240 245Z" stroke="#808080" stroke-width="2" stroke-dasharray="4 4"/>
<path d="M1234 232H46V252H1234V232Z" fill="black"/>
<path d="M306 146.268C306 145.716 305.552 145.268 305 145.268C304.448 145.268 304 145.716 304 146.268H306ZM548.293 310.319C548.683 310.709 549.317 310.709 549.707 310.319L556.071 303.955C556.462 303.564 556.462 302.931 556.071 302.541C555.681 302.15 555.047 302.15 554.657 302.541L549 308.197L543.343 302.541C542.953 302.15 542.319 302.15 541.929 302.541C541.538 302.931 541.538 303.564 541.929 303.955L548.293 310.319ZM304 146.268V148.196H306V146.268H304ZM304 152.05V155.905H306V152.05H304ZM304 159.759V163.614H306V159.759H304ZM304 167.468V171.322H306V167.468H304ZM304 175.177V179.031H306V175.177H304ZM304 182.886V186.74H306V182.886H304ZM304 190.595V194.449H306V190.595H304ZM304 198.304V202.158H306V198.304H304ZM304 206.013V207.94H306V206.013H304ZM304 207.94C304 208.634 304.034 209.321 304.1 209.998L306.09 209.804C306.031 209.191 306 208.569 306 207.94H304ZM304.899 214.038C305.302 215.366 305.832 216.639 306.477 217.842L308.24 216.897C307.657 215.81 307.177 214.659 306.813 213.458L304.899 214.038ZM308.767 221.263C309.639 222.325 310.615 223.301 311.677 224.173L312.947 222.628C311.985 221.838 311.102 220.955 310.312 219.993L308.767 221.263ZM315.098 226.464C316.301 227.108 317.574 227.638 318.902 228.041L319.482 226.127C318.281 225.763 317.13 225.283 316.043 224.701L315.098 226.464ZM322.942 228.84C323.619 228.906 324.306 228.94 325 228.94V226.94C324.371 226.94 323.749 226.909 323.136 226.85L322.942 228.84ZM325 228.94H326.962V226.94H325V228.94ZM330.885 228.94H334.808V226.94H330.885V228.94ZM338.731 228.94H342.654V226.94H338.731V228.94ZM346.577 228.94H350.5V226.94H346.577V228.94ZM354.423 228.94H358.346V226.94H354.423V228.94ZM362.269 228.94H366.192V226.94H362.269V228.94ZM370.115 228.94H374.038V226.94H370.115V228.94ZM377.962 228.94H381.885V226.94H377.962V228.94ZM385.808 228.94H389.731V226.94H385.808V228.94ZM393.654 228.94H397.577V226.94H393.654V228.94ZM401.5 228.94H405.423V226.94H401.5V228.94ZM409.346 228.94H413.269V226.94H409.346V228.94ZM417.192 228.94H421.115V226.94H417.192V228.94ZM425.038 228.94H428.962V226.94H425.038V228.94ZM432.885 228.94H436.808V226.94H432.885V228.94ZM440.731 228.94H444.654V226.94H440.731V228.94ZM448.577 228.94H452.5V226.94H448.577V228.94ZM456.423 228.94H460.346V226.94H456.423V228.94ZM464.269 228.94H468.192V226.94H464.269V228.94ZM472.115 228.94H476.039V226.94H472.115V228.94ZM479.962 228.94H483.885V226.94H479.962V228.94ZM487.808 228.94H491.731V226.94H487.808V228.94ZM495.654 228.94H499.577V226.94H495.654V228.94ZM503.5 228.94H507.423V226.94H503.5V228.94ZM511.346 228.94H515.269V226.94H511.346V228.94ZM519.192 228.94H523.115V226.94H519.192V228.94ZM527.039 228.94H529V226.94H527.039V228.94ZM529 228.94C529.629 228.94 530.251 228.971 530.864 229.03L531.058 227.04C530.381 226.974 529.694 226.94 529 226.94V228.94ZM534.518 229.753C535.719 230.117 536.87 230.597 537.957 231.18L538.902 229.417C537.699 228.772 536.426 228.242 535.098 227.839L534.518 229.753ZM541.053 233.252C542.015 234.042 542.898 234.925 543.688 235.887L545.233 234.617C544.361 233.555 543.385 232.58 542.323 231.707L541.053 233.252ZM545.76 238.983C546.343 240.07 546.823 241.221 547.187 242.422L549.101 241.842C548.698 240.514 548.168 239.241 547.523 238.038L545.76 238.983ZM547.91 246.076C547.969 246.689 548 247.311 548 247.94H550C550 247.246 549.966 246.559 549.9 245.882L547.91 246.076ZM548 247.94V249.867H550V247.94H548ZM548 253.722V257.576H550V253.722H548ZM548 261.431V265.285H550V261.431H548ZM548 269.14V272.994H550V269.14H548ZM548 276.849V280.703H550V276.849H548ZM548 284.558V288.412H550V284.558H548ZM548 292.267V296.121H550V292.267H548ZM548 299.975V303.83H550V299.975H548ZM548 307.684V309.612H550V307.684H548ZM303 146.268C303 146.147 303.037 146.018 303.132 145.88L301.484 144.747C301.184 145.183 301 145.702 301 146.268H303ZM304.236 145.211C304.469 145.153 304.726 145.119 305 145.119V143.119C304.564 143.119 304.142 143.172 303.746 143.273L304.236 145.211ZM305 145.119C305.274 145.119 305.531 145.153 305.764 145.211L306.254 143.273C305.858 143.172 305.436 143.119 305 143.119V145.119ZM306.868 145.88C306.963 146.018 307 146.147 307 146.268H309C309 145.702 308.816 145.183 308.516 144.747L306.868 145.88ZM307 146.268C307 146.389 306.963 146.519 306.868 146.657L308.516 147.79C308.816 147.354 309 146.835 309 146.268H307ZM305.764 147.325C305.531 147.384 305.274 147.418 305 147.418V149.418C305.436 149.418 305.858 149.365 306.254 149.264L305.764 147.325ZM305 147.418C304.726 147.418 304.469 147.384 304.236 147.325L303.746 149.264C304.142 149.365 304.564 149.418 305 149.418V147.418ZM303.132 146.657C303.037 146.519 303 146.389 303 146.268H301C301 146.835 301.184 147.354 301.484 147.79L303.132 146.657Z" fill="#808080"/>
<path d="M917 146.268C917 145.716 916.552 145.268 916 145.268C915.448 145.268 915 145.716 915 146.268H917ZM628.293 310.319C628.683 310.709 629.317 310.709 629.707 310.319L636.071 303.955C636.462 303.564 636.462 302.931 636.071 302.541C635.681 302.15 635.047 302.15 634.657 302.541L629 308.197L623.343 302.541C622.953 302.15 622.319 302.15 621.929 302.541C621.538 302.931 621.538 303.564 621.929 303.955L628.293 310.319ZM630 309.612V307.684H628V309.612H630ZM630 303.83V299.975H628V303.83H630ZM630 296.121V292.267H628V296.121H630ZM630 288.412V284.558H628V288.412H630ZM630 280.703V276.849H628V280.703H630ZM630 272.994V269.14H628V272.994H630ZM630 265.285V261.431H628V265.285H630ZM630 257.576V253.722H628V257.576H630ZM630 249.867V247.94H628V249.867H630ZM630 247.94C630 247.311 630.031 246.689 630.09 246.076L628.1 245.882C628.034 246.559 628 247.246 628 247.94H630ZM630.813 242.422C631.177 241.221 631.657 240.07 632.24 238.983L630.477 238.038C629.832 239.241 629.302 240.514 628.899 241.842L630.813 242.422ZM634.312 235.887C635.102 234.925 635.985 234.042 636.947 233.252L635.677 231.707C634.615 232.58 633.639 233.555 632.767 234.617L634.312 235.887ZM640.043 231.18C641.13 230.597 642.281 230.117 643.482 229.753L642.902 227.839C641.574 228.242 640.301 228.772 639.098 229.417L640.043 231.18ZM647.136 229.03C647.749 228.971 648.371 228.94 649 228.94V226.94C648.306 226.94 647.619 226.974 646.942 227.04L647.136 229.03ZM649 228.94H650.992V226.94H649V228.94ZM654.976 228.94H658.96V226.94H654.976V228.94ZM662.944 228.94H666.927V226.94H662.944V228.94ZM670.911 228.94H674.895V226.94H670.911V228.94ZM678.879 228.94H682.863V226.94H678.879V228.94ZM686.847 228.94H690.831V226.94H686.847V228.94ZM694.815 228.94H698.798V226.94H694.815V228.94ZM702.782 228.94H706.766V226.94H702.782V228.94ZM710.75 228.94H714.734V226.94H710.75V228.94ZM718.718 228.94H722.702V226.94H718.718V228.94ZM726.685 228.94H730.669V226.94H726.685V228.94ZM734.653 228.94H738.637V226.94H734.653V228.94ZM742.621 228.94H746.605V226.94H742.621V228.94ZM750.589 228.94H754.573V226.94H750.589V228.94ZM758.556 228.94H762.54V226.94H758.556V228.94ZM766.524 228.94H770.508V226.94H766.524V228.94ZM774.492 228.94H778.476V226.94H774.492V228.94ZM782.46 228.94H786.444V226.94H782.46V228.94ZM790.427 228.94H794.411V226.94H790.427V228.94ZM798.395 228.94H802.379V226.94H798.395V228.94ZM806.363 228.94H810.347V226.94H806.363V228.94ZM814.331 228.94H818.315V226.94H814.331V228.94ZM822.298 228.94H826.282V226.94H822.298V228.94ZM830.266 228.94H834.25V226.94H830.266V228.94ZM838.234 228.94H842.218V226.94H838.234V228.94ZM846.202 228.94H850.186V226.94H846.202V228.94ZM854.169 228.94H858.153V226.94H854.169V228.94ZM862.137 228.94H866.121V226.94H862.137V228.94ZM870.105 228.94H874.089V226.94H870.105V228.94ZM878.073 228.94H882.056V226.94H878.073V228.94ZM886.04 228.94H890.024V226.94H886.04V228.94ZM894.008 228.94H896V226.94H894.008V228.94ZM896 228.94C896.694 228.94 897.381 228.906 898.058 228.84L897.864 226.85C897.251 226.909 896.629 226.94 896 226.94V228.94ZM902.098 228.041C903.426 227.638 904.699 227.108 905.902 226.464L904.957 224.701C903.87 225.283 902.719 225.763 901.518 226.127L902.098 228.041ZM909.323 224.173C910.385 223.301 911.361 222.325 912.233 221.263L910.688 219.993C909.898 220.955 909.015 221.838 908.053 222.628L909.323 224.173ZM914.523 217.842C915.168 216.639 915.698 215.366 916.101 214.038L914.187 213.458C913.823 214.659 913.343 215.81 912.76 216.897L914.523 217.842ZM916.9 209.998C916.966 209.321 917 208.634 917 207.94H915C915 208.569 914.969 209.191 914.91 209.804L916.9 209.998ZM917 207.94V206.013H915V207.94H917ZM917 202.158V198.304H915V202.158H917ZM917 194.449V190.595H915V194.449H917ZM917 186.74V182.886H915V186.74H917ZM917 179.031V175.177H915V179.031H917ZM917 171.323V167.468H915V171.323H917ZM917 163.614V159.759H915V163.614H917ZM917 155.905V152.05H915V155.905H917ZM917 148.196V146.268H915V148.196H917ZM914 146.268C914 146.147 914.037 146.018 914.132 145.88L912.484 144.747C912.184 145.183 912 145.702 912 146.268H914ZM915.236 145.211C915.469 145.153 915.726 145.119 916 145.119V143.119C915.564 143.119 915.142 143.172 914.746 143.273L915.236 145.211ZM916 145.119C916.274 145.119 916.531 145.153 916.764 145.211L917.254 143.273C916.858 143.172 916.436 143.119 916 143.119V145.119ZM917.868 145.88C917.963 146.018 918 146.147 918 146.268H920C920 145.702 919.816 145.183 919.516 144.747L917.868 145.88ZM918 146.268C918 146.389 917.963 146.519 917.868 146.657L919.516 147.79C919.816 147.354 920 146.835 920 146.268H918ZM916.764 147.325C916.531 147.384 916.274 147.418 916 147.418V149.418C916.436 149.418 916.858 149.365 917.254 149.264L916.764 147.325ZM916 147.418C915.726 147.418 915.469 147.384 915.236 147.325L914.746 149.264C915.142 149.365 915.564 149.418 916 149.418V147.418ZM914.132 146.657C914.037 146.519 914 146.389 914 146.268H912C912 146.835 912.184 147.354 912.484 147.79L914.132 146.657Z" fill="#808080"/>
<path d="M158.53 113.147C159.082 113.147 159.53 112.699 159.53 112.147C159.53 111.595 159.082 111.147 158.53 111.147V113.147ZM232.707 344.707C233.098 344.317 233.098 343.683 232.707 343.293L226.343 336.929C225.953 336.538 225.319 336.538 224.929 336.929C224.538 337.319 224.538 337.953 224.929 338.343L230.586 344L224.929 349.657C224.538 350.047 224.538 350.681 224.929 351.071C225.319 351.462 225.953 351.462 226.343 351.071L232.707 344.707ZM158.53 111.147H156.685V113.147H158.53V111.147ZM152.993 111.147H149.302V113.147H152.993V111.147ZM145.611 111.147H141.919V113.147H145.611V111.147ZM138.228 111.147H134.537V113.147H138.228V111.147ZM130.846 111.147H129V113.147H130.846V111.147ZM129 111.147C128.306 111.147 127.619 111.18 126.942 111.246L127.136 113.237C127.749 113.177 128.371 113.147 129 113.147V111.147ZM122.902 112.046C121.574 112.449 120.301 112.979 119.098 113.623L120.043 115.386C121.13 114.804 122.281 114.324 123.482 113.96L122.902 112.046ZM115.677 115.913C114.615 116.786 113.639 117.761 112.767 118.824L114.312 120.094C115.102 119.132 115.985 118.249 116.947 117.459L115.677 115.913ZM110.477 122.245C109.832 123.448 109.302 124.721 108.899 126.049L110.813 126.629C111.177 125.428 111.657 124.277 112.24 123.189L110.477 122.245ZM108.1 130.089C108.034 130.766 108 131.453 108 132.147H110C110 131.517 110.031 130.896 110.09 130.283L108.1 130.089ZM108 132.147V134.145H110V132.147H108ZM108 138.142V142.139H110V138.142H108ZM108 146.136V150.133H110V146.136H108ZM108 154.13V158.127H110V154.13H108ZM108 162.124V166.121H110V162.124H108ZM108 170.118V174.115H110V170.118H108ZM108 178.112V182.109H110V178.112H108ZM108 186.105V190.102H110V186.105H108ZM108 194.099V198.096H110V194.099H108ZM108 202.093V206.09H110V202.093H108ZM108 210.087V214.084H110V210.087H108ZM108 218.081V222.078H110V218.081H108ZM108 226.075V230.072H110V226.075H108ZM108 234.069V238.066H110V234.069H108ZM108 242.063V246.06H110V242.063H108ZM108 250.057V254.053H110V250.057H108ZM108 258.05V262.047H110V258.05H108ZM108 266.044V270.041H110V266.044H108ZM108 274.038V278.035H110V274.038H108ZM108 282.032V286.029H110V282.032H108ZM108 290.026V294.023H110V290.026H108ZM108 298.02V302.017H110V298.02H108ZM108 306.014V310.011H110V306.014H108ZM108 314.008V318.005H110V314.008H108ZM108 322.002V324H110V322.002H108ZM108 324C108 324.694 108.034 325.381 108.1 326.058L110.09 325.864C110.031 325.251 110 324.629 110 324H108ZM108.899 330.098C109.302 331.426 109.832 332.699 110.477 333.902L112.24 332.957C111.657 331.87 111.177 330.719 110.813 329.518L108.899 330.098ZM112.767 337.323C113.639 338.385 114.615 339.361 115.677 340.233L116.947 338.688C115.985 337.898 115.102 337.015 114.312 336.053L112.767 337.323ZM119.098 342.523C120.301 343.168 121.574 343.698 122.902 344.101L123.482 342.187C122.281 341.823 121.13 341.343 120.043 340.76L119.098 342.523ZM126.942 344.9C127.619 344.966 128.306 345 129 345V343C128.371 343 127.749 342.969 127.136 342.91L126.942 344.9ZM129 345H130.981V343H129V345ZM134.942 345H138.904V343H134.942V345ZM142.865 345H146.827V343H142.865V345ZM150.788 345H154.75V343H150.788V345ZM158.712 345H162.673V343H158.712V345ZM166.635 345H170.596V343H166.635V345ZM174.558 345H178.519V343H174.558V345ZM182.481 345H186.442V343H182.481V345ZM190.404 345H194.365V343H190.404V345ZM198.327 345H202.288V343H198.327V345ZM206.25 345H210.212V343H206.25V345ZM214.173 345H218.135V343H214.173V345ZM222.096 345H226.058V343H222.096V345ZM230.019 345H232V343H230.019V345ZM154.577 112.147C154.577 112.165 154.569 112.151 154.607 112.094C154.65 112.031 154.742 111.932 154.913 111.815L153.788 110.162C153.175 110.579 152.577 111.24 152.577 112.147H154.577ZM157.213 111.083C157.626 111.029 158.068 111 158.53 111V109C157.984 109 157.455 109.035 156.954 109.1L157.213 111.083ZM158.53 111C158.992 111 159.435 111.029 159.847 111.083L160.106 109.1C159.605 109.035 159.076 109 158.53 109V111ZM162.147 111.815C162.319 111.932 162.41 112.031 162.453 112.094C162.492 112.151 162.483 112.165 162.483 112.147H164.483C164.483 111.24 163.885 110.579 163.272 110.162L162.147 111.815ZM162.483 112.147C162.483 112.129 162.492 112.143 162.453 112.199C162.41 112.263 162.319 112.362 162.147 112.478L163.272 114.132C163.885 113.715 164.483 113.054 164.483 112.147H162.483ZM159.847 113.21C159.435 113.264 158.992 113.294 158.53 113.294V115.294C159.076 115.294 159.605 115.259 160.106 115.194L159.847 113.21ZM158.53 113.294C158.068 113.294 157.626 113.264 157.213 113.21L156.954 115.194C157.455 115.259 157.984 115.294 158.53 115.294V113.294ZM154.913 112.478C154.742 112.362 154.65 112.263 154.607 112.199C154.569 112.143 154.577 112.129 154.577 112.147H152.577C152.577 113.054 153.175 113.715 153.788 114.132L154.913 112.478Z" fill="#808080"/>
<path d="M1145 110.881C1144.45 110.881 1144 111.328 1144 111.881C1144 112.433 1144.45 112.881 1145 112.881V110.881ZM1045.79 343.293C1045.4 343.684 1045.4 344.317 1045.79 344.707L1052.16 351.071C1052.55 351.462 1053.18 351.462 1053.57 351.071C1053.96 350.681 1053.96 350.047 1053.57 349.657L1047.91 344L1053.57 338.343C1053.96 337.953 1053.96 337.32 1053.57 336.929C1053.18 336.538 1052.55 336.538 1052.16 336.929L1045.79 343.293ZM1046.5 345H1048.44V343H1046.5V345ZM1052.31 345H1056.19V343H1052.31V345ZM1060.06 345H1063.94V343H1060.06V345ZM1067.81 345H1071.69V343H1067.81V345ZM1075.56 345H1079.44V343H1075.56V345ZM1083.31 345H1087.19V343H1083.31V345ZM1091.06 345H1094.94V343H1091.06V345ZM1098.81 345H1102.69V343H1098.81V345ZM1106.56 345H1110.44V343H1106.56V345ZM1114.31 345H1118.19V343H1114.31V345ZM1122.06 345H1125.94V343H1122.06V345ZM1129.81 345H1133.69V343H1129.81V345ZM1137.56 345H1141.44V343H1137.56V345ZM1145.31 345H1149.19V343H1145.31V345ZM1153.06 345H1155V343H1153.06V345ZM1155 345C1155.69 345 1156.38 344.966 1157.06 344.9L1156.86 342.91C1156.25 342.97 1155.63 343 1155 343V345ZM1161.1 344.101C1162.43 343.698 1163.7 343.168 1164.9 342.524L1163.96 340.761C1162.87 341.343 1161.72 341.823 1160.52 342.187L1161.1 344.101ZM1168.32 340.234C1169.39 339.361 1170.36 338.385 1171.23 337.323L1169.69 336.053C1168.9 337.015 1168.02 337.898 1167.05 338.688L1168.32 340.234ZM1173.52 333.902C1174.17 332.699 1174.7 331.426 1175.1 330.098L1173.19 329.518C1172.82 330.719 1172.34 331.87 1171.76 332.958L1173.52 333.902ZM1175.9 326.058C1175.97 325.381 1176 324.694 1176 324H1174C1174 324.629 1173.97 325.251 1173.91 325.864L1175.9 326.058ZM1176 324V321.999H1174V324H1176ZM1176 317.996V313.994H1174V317.996H1176ZM1176 309.991V305.989H1174V309.991H1176ZM1176 301.986V297.984H1174V301.986H1176ZM1176 293.981V289.979H1174V293.981H1176ZM1176 285.976V281.974H1174V285.976H1176ZM1176 277.971V273.969H1174V277.971H1176ZM1176 269.966V265.964H1174V269.966H1176ZM1176 261.962V257.959H1174V261.962H1176ZM1176 253.957V249.954H1174V253.957H1176ZM1176 245.952V241.949H1174V245.952H1176ZM1176 237.947V233.944H1174V237.947H1176ZM1176 229.942V225.939H1174V229.942H1176ZM1176 221.937V217.934H1174V221.937H1176ZM1176 213.932V209.929H1174V213.932H1176ZM1176 205.927V201.924H1174V205.927H1176ZM1176 197.922V193.919H1174V197.922H1176ZM1176 189.917V185.914H1174V189.917H1176ZM1176 181.912V177.909H1174V181.912H1176ZM1176 173.907V169.904H1174V173.907H1176ZM1176 165.902V161.899H1174V165.902H1176ZM1176 157.897V153.894H1174V157.897H1176ZM1176 149.892V145.889H1174V149.892H1176ZM1176 141.887V137.884H1174V141.887H1176ZM1176 133.882V131.881H1174V133.882H1176ZM1176 131.881C1176 131.187 1175.97 130.5 1175.9 129.823L1173.91 130.016C1173.97 130.63 1174 131.251 1174 131.881H1176ZM1175.1 125.783C1174.7 124.454 1174.17 123.182 1173.52 121.979L1171.76 122.923C1172.34 124.011 1172.82 125.162 1173.19 126.363L1175.1 125.783ZM1171.23 118.558C1170.36 117.495 1169.39 116.52 1168.32 115.647L1167.05 117.193C1168.02 117.983 1168.9 118.866 1169.69 119.827L1171.23 118.558ZM1164.9 113.357C1163.7 112.713 1162.43 112.182 1161.1 111.78L1160.52 113.694C1161.72 114.058 1162.87 114.538 1163.96 115.12L1164.9 113.357ZM1157.06 110.98C1156.38 110.914 1155.69 110.881 1155 110.881V112.881C1155.63 112.881 1156.25 112.911 1156.86 112.971L1157.06 110.98ZM1155 110.881H1152.5V112.881H1155V110.881ZM1147.5 110.881H1145V112.881H1147.5V110.881ZM1143 111.881C1143 111.76 1143.04 111.63 1143.13 111.492L1141.48 110.359C1141.18 110.795 1141 111.314 1141 111.881H1143ZM1144.24 110.824C1144.47 110.765 1144.73 110.731 1145 110.731V108.731C1144.56 108.731 1144.14 108.785 1143.75 108.885L1144.24 110.824ZM1145 110.731C1145.27 110.731 1145.53 110.765 1145.76 110.824L1146.25 108.885C1145.86 108.785 1145.44 108.731 1145 108.731V110.731ZM1146.87 111.492C1146.96 111.63 1147 111.76 1147 111.881H1149C1149 111.314 1148.82 110.795 1148.52 110.359L1146.87 111.492ZM1147 111.881C1147 112.002 1146.96 112.131 1146.87 112.269L1148.52 113.402C1148.82 112.966 1149 112.447 1149 111.881H1147ZM1145.76 112.938C1145.53 112.997 1145.27 113.03 1145 113.03V115.03C1145.44 115.03 1145.86 114.977 1146.25 114.877L1145.76 112.938ZM1145 113.03C1144.73 113.03 1144.47 112.997 1144.24 112.938L1143.75 114.877C1144.14 114.977 1144.56 115.03 1145 115.03V113.03ZM1143.13 112.269C1143.04 112.131 1143 112.002 1143 111.881H1141C1141 112.447 1141.18 112.966 1141.48 113.402L1143.13 112.269Z" fill="#808080"/>
<path d="M344 77.4925C344 78.0448 344.448 78.4925 345 78.4925C345.552 78.4925 346 78.0448 346 77.4925H344ZM834.293 310.319C834.683 310.71 835.317 310.71 835.707 310.319L842.071 303.955C842.462 303.565 842.462 302.931 842.071 302.541C841.681 302.15 841.047 302.15 840.657 302.541L835 308.198L829.343 302.541C828.953 302.15 828.319 302.15 827.929 302.541C827.538 302.931 827.538 303.565 827.929 303.955L834.293 310.319ZM346 77.4925V77.1194H344V77.4925H346ZM346 76.3731V76H344V76.3731H346ZM346 76C346 75.3707 346.031 74.7488 346.09 74.1358L344.1 73.942C344.034 74.6194 344 75.3059 344 76H346ZM346.813 70.4823C347.177 69.2812 347.657 68.1303 348.24 67.0425L346.477 66.0982C345.832 67.3009 345.302 68.5737 344.899 69.9024L346.813 70.4823ZM350.312 63.9468C351.102 62.985 351.985 62.1021 352.947 61.3119L351.677 59.7665C350.615 60.6395 349.639 61.6147 348.767 62.6771L350.312 63.9468ZM356.043 59.2395C357.13 58.6569 358.281 58.1772 359.482 57.8133L358.902 55.8992C357.574 56.3018 356.301 56.8324 355.098 57.4765L356.043 59.2395ZM363.136 57.0902C363.749 57.0306 364.371 57 365 57V55C364.306 55 363.619 55.0337 362.942 55.0996L363.136 57.0902ZM365 57H367.009V55H365V57ZM371.027 57H375.045V55H371.027V57ZM379.062 57H383.08V55H379.062V57ZM387.098 57H391.116V55H387.098V57ZM395.134 57H399.152V55H395.134V57ZM403.17 57H407.188V55H403.17V57ZM411.205 57H415.223V55H411.205V57ZM419.241 57H423.259V55H419.241V57ZM427.277 57H431.295V55H427.277V57ZM435.312 57H439.33V55H435.312V57ZM443.348 57H447.366V55H443.348V57ZM451.384 57H455.402V55H451.384V57ZM459.42 57H463.438V55H459.42V57ZM467.455 57H471.473V55H467.455V57ZM475.491 57H479.509V55H475.491V57ZM483.527 57H487.545V55H483.527V57ZM491.563 57H495.58V55H491.563V57ZM499.598 57H503.616V55H499.598V57ZM507.634 57H511.652V55H507.634V57ZM515.67 57H519.688V55H515.67V57ZM523.705 57H527.723V55H523.705V57ZM531.741 57H535.759V55H531.741V57ZM539.777 57H543.795V55H539.777V57ZM547.812 57H551.83V55H547.812V57ZM555.848 57H559.866V55H555.848V57ZM563.884 57H567.902V55H563.884V57ZM571.92 57H575.937V55H571.92V57ZM579.955 57H583.973V55H579.955V57ZM587.991 57H592.009V55H587.991V57ZM596.027 57H600.045V55H596.027V57ZM604.062 57H608.08V55H604.062V57ZM612.098 57H616.116V55H612.098V57ZM620.134 57H624.152V55H620.134V57ZM628.17 57H632.187V55H628.17V57ZM636.205 57H640.223V55H636.205V57ZM644.241 57H648.259V55H644.241V57ZM652.277 57H656.295V55H652.277V57ZM660.312 57H664.33V55H660.312V57ZM668.348 57H672.366V55H668.348V57ZM676.384 57H680.402V55H676.384V57ZM684.419 57H688.437V55H684.419V57ZM692.455 57H696.473V55H692.455V57ZM700.491 57H704.509V55H700.491V57ZM708.527 57H712.544V55H708.527V57ZM716.562 57H720.58V55H716.562V57ZM724.598 57H728.616V55H724.598V57ZM732.634 57H736.652V55H732.634V57ZM740.669 57H744.687V55H740.669V57ZM748.705 57H752.723V55H748.705V57ZM756.741 57H760.759V55H756.741V57ZM764.777 57H768.794V55H764.777V57ZM772.812 57H776.83V55H772.812V57ZM780.848 57H784.866V55H780.848V57ZM788.884 57H792.902V55H788.884V57ZM796.919 57H800.937V55H796.919V57ZM804.955 57H808.973V55H804.955V57ZM812.991 57H815V55H812.991V57ZM815 57C815.629 57 816.251 57.0306 816.864 57.0902L817.058 55.0996C816.381 55.0337 815.694 55 815 55V57ZM820.518 57.8133C821.719 58.1772 822.87 58.6569 823.957 59.2395L824.902 57.4765C823.699 56.8324 822.426 56.3018 821.098 55.8992L820.518 57.8133ZM827.053 61.3119C828.015 62.1021 828.898 62.985 829.688 63.9468L831.233 62.6771C830.361 61.6147 829.385 60.6395 828.323 59.7665L827.053 61.3119ZM831.76 67.0425C832.343 68.1303 832.823 69.2812 833.187 70.4823L835.101 69.9024C834.698 68.5737 834.168 67.3009 833.523 66.0982L831.76 67.0425ZM833.91 74.1358C833.969 74.7488 834 75.3707 834 76H836C836 75.3059 835.966 74.6194 835.9 73.942L833.91 74.1358ZM834 76V78.0139H836V76H834ZM834 82.0417V86.0695H836V82.0417H834ZM834 90.0973V94.1251H836V90.0973H834ZM834 98.1529V102.181H836V98.1529H834ZM834 106.208V110.236H836V106.208H834ZM834 114.264V118.292H836V114.264H834ZM834 122.32V126.347H836V122.32H834ZM834 130.375V134.403H836V130.375H834ZM834 138.431V142.459H836V138.431H834ZM834 146.486V150.514H836V146.486H834ZM834 154.542V158.57H836V154.542H834ZM834 162.598V166.625H836V162.598H834ZM834 170.653V174.681H836V170.653H834ZM834 178.709V182.737H836V178.709H834ZM834 186.764V190.792H836V186.764H834ZM834 194.82V198.848H836V194.82H834ZM834 202.875V206.903H836V202.875H834ZM834 210.931V214.959H836V210.931H834ZM834 218.987V223.014H836V218.987H834ZM834 227.042V231.07H836V227.042H834ZM834 235.098V239.126H836V235.098H834ZM834 243.153V247.181H836V243.153H834ZM834 251.209V255.237H836V251.209H834ZM834 259.264V263.292H836V259.264H834ZM834 267.32V271.348H836V267.32H834ZM834 275.376V279.403H836V275.376H834ZM834 283.431V287.459H836V283.431H834ZM834 291.487V295.515H836V291.487H834ZM834 299.542V303.57H836V299.542H834ZM834 307.598V309.612H836V307.598H834ZM343 77.4925C343 77.3715 343.037 77.2421 343.132 77.1038L341.484 75.9713C341.184 76.4072 341 76.9259 341 77.4925H343ZM344.236 76.4356C344.469 76.3767 344.726 76.3433 345 76.3433V74.3433C344.564 74.3433 344.142 74.3964 343.746 74.4966L344.236 76.4356ZM345 76.3433C345.274 76.3433 345.531 76.3767 345.764 76.4356L346.254 74.4966C345.858 74.3964 345.436 74.3433 345 74.3433V76.3433ZM346.868 77.1038C346.963 77.2421 347 77.3715 347 77.4925H349C349 76.9259 348.816 76.4072 348.516 75.9713L346.868 77.1038ZM347 77.4925C347 77.6135 346.963 77.7429 346.868 77.8813L348.516 79.0137C348.816 78.5779 349 78.0592 349 77.4925H347ZM345.764 78.5494C345.531 78.6084 345.274 78.6418 345 78.6418V80.6418C345.436 80.6418 345.858 80.5887 346.254 80.4884L345.764 78.5494ZM345 78.6418C344.726 78.6418 344.469 78.6084 344.236 78.5494L343.746 80.4884C344.142 80.5887 344.564 80.6418 345 80.6418V78.6418ZM343.132 77.8813C343.037 77.7429 343 77.6135 343 77.4925H341C341 78.0592 341.184 78.5779 341.484 79.0137L343.132 77.8813Z" fill="#808080"/>
<path d="M572.286 146.156C572.286 145.604 571.838 145.156 571.286 145.156C570.733 145.156 570.286 145.604 570.286 146.156H572.286ZM588.293 310.707C588.683 311.098 589.317 311.098 589.707 310.707L596.071 304.343C596.462 303.953 596.462 303.319 596.071 302.929C595.681 302.538 595.047 302.538 594.657 302.929L589 308.586L583.343 302.929C582.953 302.538 582.319 302.538 581.929 302.929C581.538 303.319 581.538 303.953 581.929 304.343L588.293 310.707ZM580.143 227.078C579.591 227.078 579.143 227.526 579.143 228.078C579.143 228.63 579.591 229.078 580.143 229.078V227.078ZM580.143 229.078C580.695 229.078 581.143 228.63 581.143 228.078C581.143 227.526 580.695 227.078 580.143 227.078V229.078ZM570.286 146.156V148.185H572.286V146.156H570.286ZM570.286 152.245V156.304H572.286V152.245H570.286ZM570.286 160.363V164.422H572.286V160.363H570.286ZM570.286 168.481V172.54H572.286V168.481H570.286ZM570.286 176.6V180.659H572.286V176.6H570.286ZM570.286 184.718V188.777H572.286V184.718H570.286ZM570.286 192.836V196.895H572.286V192.836H570.286ZM570.286 200.955V205.014H572.286V200.955H570.286ZM570.286 209.073V213.132H572.286V209.073H570.286ZM570.286 217.191V219.221H572.286V217.191H570.286ZM570.286 219.221C570.286 219.878 570.35 220.521 570.473 221.143L572.435 220.755C572.337 220.26 572.286 219.747 572.286 219.221H570.286ZM571.947 224.698C572.666 225.773 573.591 226.698 574.665 227.417L575.778 225.755C574.921 225.181 574.182 224.443 573.609 223.586L571.947 224.698ZM578.22 228.89C578.843 229.013 579.486 229.078 580.143 229.078V227.078C579.617 227.078 579.104 227.026 578.608 226.928L578.22 228.89ZM580.143 229.078C580.669 229.078 581.182 229.129 581.677 229.227L582.066 227.266C581.443 227.142 580.8 227.078 580.143 227.078V229.078ZM584.508 230.401C585.365 230.975 586.103 231.713 586.677 232.57L588.339 231.458C587.62 230.383 586.695 229.458 585.62 228.739L584.508 230.401ZM587.85 235.401C587.948 235.896 588 236.409 588 236.935H590C590 236.278 589.936 235.635 589.812 235.012L587.85 235.401ZM588 236.935V238.965H590V236.935H588ZM588 243.024V247.083H590V243.024H588ZM588 251.142V255.201H590V251.142H588ZM588 259.26V263.32H590V259.26H588ZM588 267.379V271.438H590V267.379H588ZM588 275.497V279.556H590V275.497H588ZM588 283.615V287.675H590V283.615H588ZM588 291.734V295.793H590V291.734H588ZM588 299.852V303.911H590V299.852H588ZM588 307.97V310H590V307.97H588ZM559 146.156C559 146.318 558.94 146.432 558.905 146.481C558.876 146.522 558.866 146.517 558.92 146.48C559.033 146.401 559.263 146.286 559.653 146.155L559.021 144.258C558.554 144.414 558.116 144.602 557.774 144.841C557.466 145.056 557 145.483 557 146.156H559ZM562.837 145.496C563.831 145.36 564.961 145.248 566.194 145.164L566.059 143.169C564.788 143.255 563.612 143.372 562.566 143.515L562.837 145.496ZM569.584 145.017C570.141 145.006 570.709 145 571.286 145V143C570.695 143 570.113 143.006 569.543 143.018L569.584 145.017ZM571.286 145C571.863 145 572.431 145.006 572.987 145.017L573.028 143.018C572.458 143.006 571.876 143 571.286 143V145ZM576.377 145.164C577.611 145.248 578.741 145.36 579.735 145.496L580.006 143.515C578.959 143.372 577.783 143.255 576.512 143.169L576.377 145.164ZM582.918 146.155C583.309 146.286 583.539 146.401 583.651 146.48C583.705 146.517 583.695 146.522 583.666 146.481C583.632 146.432 583.571 146.318 583.571 146.156H585.571C585.571 145.483 585.105 145.056 584.798 144.841C584.456 144.602 584.017 144.414 583.551 144.258L582.918 146.155ZM583.571 146.156C583.571 145.993 583.632 145.88 583.666 145.831C583.695 145.79 583.705 145.794 583.651 145.832C583.539 145.911 583.309 146.026 582.918 146.156L583.551 148.054C584.017 147.898 584.456 147.71 584.798 147.471C585.105 147.255 585.571 146.829 585.571 146.156H583.571ZM579.735 146.815C578.741 146.951 577.611 147.064 576.377 147.148L576.512 149.143C577.783 149.057 578.959 148.94 580.006 148.797L579.735 146.815ZM572.987 147.294C572.431 147.306 571.863 147.312 571.286 147.312V149.312C571.876 149.312 572.458 149.306 573.028 149.294L572.987 147.294ZM571.286 147.312C570.709 147.312 570.141 147.306 569.584 147.294L569.543 149.294C570.113 149.306 570.695 149.312 571.286 149.312V147.312ZM566.194 147.148C564.961 147.064 563.831 146.951 562.837 146.815L562.566 148.797C563.612 148.94 564.788 149.057 566.059 149.143L566.194 147.148ZM559.653 146.156C559.263 146.026 559.033 145.911 558.92 145.832C558.866 145.794 558.876 145.79 558.905 145.831C558.94 145.88 559 145.993 559 146.156H557C557 146.829 557.466 147.255 557.774 147.471C558.116 147.71 558.554 147.898 559.021 148.054L559.653 146.156Z" fill="#808080"/>
<path d="M479 109V191.281C479 201.343 462.346 209.5 441.8 209.5H330.2C309.654 209.5 293 217.657 293 227.718V310" stroke="#808080" stroke-width="2" stroke-dasharray="4 4"/>
<path d="M665 89V179.5C665 190.546 673.954 199.5 685 199.5H769C780.046 199.5 789 208.454 789 219.5V310" stroke="#808080" stroke-width="2" stroke-dasharray="4 4"/>
<path d="M148 0H46C37.1634 0 30 7.16344 30 16V24C30 32.8366 37.1634 40 46 40H148C156.837 40 164 32.8366 164 24V16C164 7.16344 156.837 0 148 0Z" fill="black"/>
<path d="M53.16 24.5598C55.76 24.5598 56.92 23.0798 57.16 21.1598H58.96C58.62 24.0798 56.78 26.1198 53.14 26.1198C49.54 26.1198 46.98 23.5198 46.98 19.1398C46.98 14.8998 49.6 12.1598 53.14 12.1598C56.7 12.1598 58.66 14.1998 58.96 17.1798H57.16C56.92 15.1998 55.74 13.7198 53.16 13.7198C50.7 13.7198 48.76 15.7798 48.76 19.1398C48.76 22.5798 50.66 24.5598 53.16 24.5598ZM69.7295 24.3998L69.8695 25.9398C69.5295 26.0398 69.1695 26.0998 68.7495 26.0998C67.7295 26.0998 67.0495 25.4598 66.9295 24.4998C66.5695 25.0598 65.6695 26.0998 63.4895 26.0998C61.2695 26.0998 60.1695 24.9998 60.1695 23.4398C60.1695 21.3198 62.1295 20.4398 64.8495 20.4398H66.9095V19.7998C66.9095 18.4398 66.0695 17.5998 64.4895 17.5998C63.0895 17.5998 62.2295 18.2598 62.1095 19.4398H60.3895C60.5495 17.3198 62.2095 16.0998 64.6095 16.0998C67.1895 16.0998 68.6695 17.4798 68.6695 19.8398V23.8398C68.6695 24.2598 68.9095 24.4998 69.2295 24.4998C69.4095 24.4998 69.5295 24.4798 69.7295 24.3998ZM63.8495 24.6798C65.8295 24.6798 66.9095 23.2998 66.9095 22.3998V21.7198H64.7495C62.9095 21.7198 61.9695 22.2798 61.9695 23.3598C61.9695 24.1798 62.5295 24.6798 63.8495 24.6798ZM76.4475 16.0998C79.1075 16.0998 80.9075 17.9998 80.9075 20.9798C80.9075 23.9998 79.0675 26.0998 76.3275 26.0998C74.7275 26.0998 73.6875 25.4398 73.1075 24.4998V29.9998H71.3475V16.1998H73.0675L73.1075 17.8398C73.7275 16.8398 74.8475 16.0998 76.4475 16.0998ZM76.2075 24.5998C77.9675 24.5998 79.1075 23.1398 79.1075 21.0198C79.1075 18.9398 78.0075 17.5998 76.2475 17.5998C74.1075 17.5998 73.1075 19.4198 73.1075 20.8598V21.2998C73.1075 22.7798 74.0675 24.5998 76.2075 24.5998ZM91.742 24.3998L91.882 25.9398C91.542 26.0398 91.182 26.0998 90.762 26.0998C89.742 26.0998 89.062 25.4598 88.942 24.4998C88.582 25.0598 87.682 26.0998 85.502 26.0998C83.282 26.0998 82.182 24.9998 82.182 23.4398C82.182 21.3198 84.142 20.4398 86.862 20.4398H88.922V19.7998C88.922 18.4398 88.082 17.5998 86.502 17.5998C85.102 17.5998 84.242 18.2598 84.122 19.4398H82.402C82.562 17.3198 84.222 16.0998 86.622 16.0998C89.202 16.0998 90.682 17.4798 90.682 19.8398V23.8398C90.682 24.2598 90.922 24.4998 91.242 24.4998C91.422 24.4998 91.542 24.4798 91.742 24.3998ZM85.862 24.6798C87.842 24.6798 88.922 23.2998 88.922 22.3998V21.7198H86.762C84.922 21.7198 83.982 22.2798 83.982 23.3598C83.982 24.1798 84.542 24.6798 85.862 24.6798ZM98.46 16.0998C101.12 16.0998 102.92 17.9998 102.92 20.9798C102.92 23.9998 101.08 26.0998 98.34 26.0998C96.74 26.0998 95.7 25.4398 95.12 24.4998L95.08 25.9998H93.36V11.7998H95.12V17.8398C95.74 16.8398 96.86 16.0998 98.46 16.0998ZM98.22 24.5998C99.98 24.5998 101.12 23.1398 101.12 21.0198C101.12 18.9398 100.02 17.5998 98.26 17.5998C96.12 17.5998 95.12 19.4198 95.12 20.8598V21.2998C95.12 22.7798 96.08 24.5998 98.22 24.5998ZM107.015 12.9998C107.015 13.6998 106.475 14.1998 105.795 14.1998C105.115 14.1998 104.575 13.6998 104.575 12.9998C104.575 12.3198 105.115 11.7998 105.795 11.7998C106.475 11.7998 107.015 12.3198 107.015 12.9998ZM104.855 25.9998V16.1998H106.635V25.9998H104.855ZM111.922 24.3998L112.062 25.9398C111.722 26.0398 111.362 26.0998 110.942 26.0998C109.802 26.0998 109.102 25.3198 109.102 24.1798V11.7998H110.862V23.8398C110.862 24.2598 111.122 24.4998 111.462 24.4998C111.622 24.4998 111.722 24.4798 111.922 24.3998ZM115.922 12.9998C115.922 13.6998 115.382 14.1998 114.702 14.1998C114.022 14.1998 113.482 13.6998 113.482 12.9998C113.482 12.3198 114.022 11.7998 114.702 11.7998C115.382 11.7998 115.922 12.3198 115.922 12.9998ZM113.762 25.9998V16.1998H115.542V25.9998H113.762ZM123.629 24.3198L123.709 25.8598C123.389 25.9998 122.789 26.0998 122.169 26.0998C119.889 26.0998 118.529 24.8198 118.529 22.7798V17.7198H117.049V16.1998H118.629V13.2798H120.289V16.1998H123.469V17.6798H120.289V22.7798C120.289 23.7598 120.749 24.5598 122.349 24.5598C122.789 24.5598 123.209 24.4998 123.629 24.3198ZM127.25 12.9998C127.25 13.6998 126.71 14.1998 126.03 14.1998C125.35 14.1998 124.81 13.6998 124.81 12.9998C124.81 12.3198 125.35 11.7998 126.03 11.7998C126.71 11.7998 127.25 12.3198 127.25 12.9998ZM125.09 25.9998V16.1998H126.87V25.9998H125.09ZM137.938 21.1198V21.5598H130.618C130.758 23.4198 131.818 24.5998 133.538 24.5998C135.258 24.5998 135.918 23.6998 136.098 22.8998H137.878C137.498 24.6798 136.138 26.0998 133.518 26.0998C130.458 26.0998 128.798 23.9998 128.798 21.1198C128.798 18.1798 130.738 16.0998 133.478 16.0998C136.218 16.0998 137.938 17.9598 137.938 21.1198ZM133.498 17.5998C131.998 17.5998 130.938 18.6198 130.658 20.2598H136.158C135.938 18.4998 134.978 17.5998 133.498 17.5998ZM141.177 18.8598C141.177 21.0998 146.997 19.3998 146.997 23.3398C146.997 24.9598 145.597 26.0998 143.077 26.0998C140.377 26.0998 139.217 25.0198 139.177 23.1198L140.797 23.1398C140.897 24.0798 141.497 24.5998 143.097 24.5998C144.617 24.5998 145.257 24.0798 145.257 23.3398C145.257 21.0598 139.437 22.6798 139.437 18.8598C139.437 17.2398 140.817 16.0998 143.197 16.0998C145.557 16.0998 146.777 17.1798 146.857 19.0798L145.217 19.0598C145.137 18.0998 144.397 17.5998 143.157 17.5998C141.817 17.5998 141.177 18.0798 141.177 18.8598Z" fill="#808080"/>
<path d="M1234 444H1118C1109.16 444 1102 451.163 1102 460V468C1102 476.837 1109.16 484 1118 484H1234C1242.84 484 1250 476.837 1250 468V460C1250 451.163 1242.84 444 1234 444Z" fill="black"/>
<path d="M1120.98 459.82C1120.98 463.52 1129.06 460.76 1129.06 466.42C1129.06 468.64 1127.02 470.12 1124 470.12C1120.78 470.12 1118.84 468.66 1118.84 466.06H1120.58C1120.58 467.62 1121.82 468.56 1124.14 468.56C1126.1 468.56 1127.3 467.78 1127.28 466.42C1127.28 462.54 1119.2 465.36 1119.2 459.86C1119.2 457.6 1121.16 456.16 1124.1 456.16C1127.04 456.16 1128.9 457.62 1128.88 460.12H1127.14C1127.14 458.46 1125.92 457.72 1124.04 457.72C1121.92 457.72 1120.98 458.48 1120.98 459.82ZM1139.59 465.12V465.56H1132.27C1132.41 467.42 1133.47 468.6 1135.19 468.6C1136.91 468.6 1137.57 467.7 1137.75 466.9H1139.53C1139.15 468.68 1137.79 470.1 1135.17 470.1C1132.11 470.1 1130.45 468 1130.45 465.12C1130.45 462.18 1132.39 460.1 1135.13 460.1C1137.87 460.1 1139.59 461.96 1139.59 465.12ZM1135.15 461.6C1133.65 461.6 1132.59 462.62 1132.31 464.26H1137.81C1137.59 462.5 1136.63 461.6 1135.15 461.6ZM1145.79 460.1C1146.05 460.1 1146.23 460.14 1146.35 460.16L1146.33 461.9C1146.25 461.86 1146.07 461.82 1145.67 461.82C1144.43 461.82 1143.27 462.86 1143.27 464.84V470H1141.51V460.2H1143.17L1143.21 461.78C1143.69 460.82 1144.51 460.1 1145.79 460.1ZM1154.33 460.2H1156.13L1152.37 470H1150.45L1146.63 460.2H1148.61L1151.13 467.16C1151.27 467.52 1151.35 467.8 1151.45 468.2H1151.49C1151.57 467.8 1151.65 467.52 1151.77 467.16L1154.33 460.2ZM1159.69 457C1159.69 457.7 1159.15 458.2 1158.47 458.2C1157.79 458.2 1157.25 457.7 1157.25 457C1157.25 456.32 1157.79 455.8 1158.47 455.8C1159.15 455.8 1159.69 456.32 1159.69 457ZM1157.53 470V460.2H1159.31V470H1157.53ZM1165.82 470.1C1162.84 470.1 1161.24 468.02 1161.24 465.14C1161.24 462.2 1163.14 460.1 1165.92 460.1C1168.48 460.1 1169.98 461.54 1170.24 463.78H1168.36C1168.16 462.56 1167.42 461.6 1165.94 461.6C1164.18 461.6 1163.04 462.98 1163.04 465.1C1163.04 467.2 1164.08 468.6 1165.9 468.6C1167.42 468.6 1168.16 467.64 1168.36 466.48H1170.24C1169.94 468.66 1168.42 470.1 1165.82 470.1ZM1180.58 465.12V465.56H1173.26C1173.4 467.42 1174.46 468.6 1176.18 468.6C1177.9 468.6 1178.56 467.7 1178.74 466.9H1180.52C1180.14 468.68 1178.78 470.1 1176.16 470.1C1173.1 470.1 1171.44 468 1171.44 465.12C1171.44 462.18 1173.38 460.1 1176.12 460.1C1178.86 460.1 1180.58 461.96 1180.58 465.12ZM1176.14 461.6C1174.64 461.6 1173.58 462.62 1173.3 464.26H1178.8C1178.58 462.5 1177.62 461.6 1176.14 461.6ZM1195.32 470L1194.06 466.52H1188L1186.74 470H1184.96L1190.02 456.28H1192.04L1197.1 470H1195.32ZM1188.58 464.96H1193.48L1191.04 458.24L1188.58 464.96ZM1202.7 460.1C1202.96 460.1 1203.14 460.14 1203.26 460.16L1203.24 461.9C1203.16 461.86 1202.98 461.82 1202.58 461.82C1201.34 461.82 1200.18 462.86 1200.18 464.84V470H1198.42V460.2H1200.08L1200.12 461.78C1200.6 460.82 1201.42 460.1 1202.7 460.1ZM1212.91 465.12V465.56H1205.59C1205.73 467.42 1206.79 468.6 1208.51 468.6C1210.23 468.6 1210.89 467.7 1211.07 466.9H1212.85C1212.47 468.68 1211.11 470.1 1208.49 470.1C1205.43 470.1 1203.77 468 1203.77 465.12C1203.77 462.18 1205.71 460.1 1208.45 460.1C1211.19 460.1 1212.91 461.96 1212.91 465.12ZM1208.47 461.6C1206.97 461.6 1205.91 462.62 1205.63 464.26H1211.13C1210.91 462.5 1209.95 461.6 1208.47 461.6ZM1223.73 468.4L1223.87 469.94C1223.53 470.04 1223.17 470.1 1222.75 470.1C1221.73 470.1 1221.05 469.46 1220.93 468.5C1220.57 469.06 1219.67 470.1 1217.49 470.1C1215.27 470.1 1214.17 469 1214.17 467.44C1214.17 465.32 1216.13 464.44 1218.85 464.44H1220.91V463.8C1220.91 462.44 1220.07 461.6 1218.49 461.6C1217.09 461.6 1216.23 462.26 1216.11 463.44H1214.39C1214.55 461.32 1216.21 460.1 1218.61 460.1C1221.19 460.1 1222.67 461.48 1222.67 463.84V467.84C1222.67 468.26 1222.91 468.5 1223.23 468.5C1223.41 468.5 1223.53 468.48 1223.73 468.4ZM1217.85 468.68C1219.83 468.68 1220.91 467.3 1220.91 466.4V465.72H1218.75C1216.91 465.72 1215.97 466.28 1215.97 467.36C1215.97 468.18 1216.53 468.68 1217.85 468.68ZM1226.66 462.86C1226.66 465.1 1232.48 463.4 1232.48 467.34C1232.48 468.96 1231.08 470.1 1228.56 470.1C1225.86 470.1 1224.7 469.02 1224.66 467.12L1226.28 467.14C1226.38 468.08 1226.98 468.6 1228.58 468.6C1230.1 468.6 1230.74 468.08 1230.74 467.34C1230.74 465.06 1224.92 466.68 1224.92 462.86C1224.92 461.24 1226.3 460.1 1228.68 460.1C1231.04 460.1 1232.26 461.18 1232.34 463.08L1230.7 463.06C1230.62 462.1 1229.88 461.6 1228.64 461.6C1227.3 461.6 1226.66 462.08 1226.66 462.86Z" fill="#808080"/>
<path d="M233 332C233 318.745 243.745 308 257 308H458C471.255 308 482 318.745 482 332V371C482 384.255 471.255 395 458 395H257C243.745 395 233 384.255 233 371V332Z" fill="#3194DB"/>
<path d="M180 96C180 82.7452 190.745 72 204 72H405C418.255 72 429 82.7452 429 96V135C429 148.255 418.255 159 405 159H204C190.745 159 180 148.255 180 135V96Z" fill="#3194DB"/>
<path d="M516 335C516 321.745 526.745 311 540 311H671C684.255 311 695 321.745 695 335V374C695 387.255 684.255 398 671 398H540C526.745 398 516 387.255 516 374V335Z" fill="#3194DB"/>
<path d="M453 96C453 82.7452 463.745 72 477 72H647C660.255 72 671 82.7452 671 96V135C671 148.255 660.255 159 647 159H477C463.745 159 453 148.255 453 135V96Z" fill="#3194DB"/>
<path d="M720 335C720 321.745 730.745 311 744 311H1020C1033.25 311 1044 321.745 1044 335V374C1044 387.255 1033.25 398 1020 398H744C730.745 398 720 387.255 720 374V335Z" fill="#3194DB"/>
<path d="M695 99C695 85.7452 705.745 75 719 75H1127C1140.25 75 1151 85.7452 1151 99V138C1151 151.255 1140.25 162 1127 162H719C705.745 162 695 151.255 695 138V99Z" fill="#3194DB"/>
<path d="M536.835 374V339.091H549.619C552.097 339.091 554.148 339.5 555.773 340.318C557.398 341.125 558.614 342.222 559.42 343.608C560.227 344.983 560.631 346.534 560.631 348.261C560.631 349.716 560.364 350.943 559.83 351.943C559.295 352.932 558.58 353.727 557.682 354.33C556.795 354.92 555.818 355.352 554.75 355.625V355.966C555.909 356.023 557.04 356.398 558.142 357.091C559.256 357.773 560.176 358.744 560.903 360.006C561.631 361.267 561.994 362.801 561.994 364.608C561.994 366.392 561.574 367.994 560.733 369.415C559.903 370.824 558.619 371.943 556.881 372.773C555.142 373.591 552.92 374 550.216 374H536.835ZM542.102 369.483H549.705C552.227 369.483 554.034 368.994 555.125 368.017C556.216 367.04 556.761 365.818 556.761 364.352C556.761 363.25 556.483 362.239 555.926 361.318C555.369 360.398 554.574 359.665 553.54 359.119C552.517 358.574 551.301 358.301 549.892 358.301H542.102V369.483ZM542.102 354.193H549.159C550.341 354.193 551.403 353.966 552.347 353.511C553.301 353.057 554.057 352.42 554.614 351.602C555.182 350.773 555.466 349.795 555.466 348.67C555.466 347.227 554.96 346.017 553.949 345.04C552.938 344.062 551.386 343.574 549.295 343.574H542.102V354.193ZM567.832 374V347.818H572.759V351.977H573.031C573.509 350.568 574.349 349.46 575.554 348.653C576.77 347.835 578.145 347.426 579.679 347.426C579.997 347.426 580.372 347.437 580.804 347.46C581.247 347.483 581.594 347.511 581.844 347.545V352.42C581.639 352.364 581.276 352.301 580.753 352.233C580.23 352.153 579.707 352.114 579.185 352.114C577.98 352.114 576.906 352.369 575.963 352.881C575.031 353.381 574.293 354.08 573.747 354.977C573.202 355.864 572.929 356.875 572.929 358.011V374H567.832ZM593.639 374.58C591.98 374.58 590.48 374.273 589.139 373.659C587.798 373.034 586.736 372.131 585.952 370.949C585.179 369.767 584.793 368.318 584.793 366.602C584.793 365.125 585.077 363.909 585.645 362.955C586.213 362 586.98 361.244 587.946 360.688C588.912 360.131 589.991 359.71 591.185 359.426C592.378 359.142 593.594 358.926 594.832 358.778C596.401 358.597 597.673 358.449 598.651 358.335C599.628 358.21 600.338 358.011 600.781 357.739C601.224 357.466 601.446 357.023 601.446 356.409V356.29C601.446 354.801 601.026 353.648 600.185 352.83C599.355 352.011 598.116 351.602 596.469 351.602C594.753 351.602 593.401 351.983 592.412 352.744C591.435 353.494 590.759 354.33 590.384 355.25L585.594 354.159C586.162 352.568 586.991 351.284 588.082 350.307C589.185 349.318 590.452 348.602 591.884 348.159C593.315 347.705 594.821 347.477 596.401 347.477C597.446 347.477 598.554 347.602 599.724 347.852C600.906 348.091 602.009 348.534 603.031 349.182C604.065 349.83 604.912 350.756 605.571 351.96C606.23 353.153 606.56 354.705 606.56 356.614V374H601.582V370.42H601.378C601.048 371.08 600.554 371.727 599.895 372.364C599.236 373 598.389 373.528 597.355 373.949C596.321 374.369 595.082 374.58 593.639 374.58ZM594.747 370.489C596.156 370.489 597.361 370.21 598.361 369.653C599.372 369.097 600.139 368.369 600.662 367.472C601.196 366.562 601.463 365.591 601.463 364.557V361.182C601.281 361.364 600.929 361.534 600.406 361.693C599.895 361.841 599.31 361.972 598.651 362.085C597.991 362.187 597.349 362.284 596.724 362.375C596.099 362.455 595.577 362.523 595.156 362.58C594.168 362.705 593.264 362.915 592.446 363.21C591.639 363.506 590.991 363.932 590.503 364.489C590.026 365.034 589.787 365.761 589.787 366.67C589.787 367.932 590.253 368.886 591.185 369.534C592.116 370.17 593.304 370.489 594.747 370.489ZM618.445 358.455V374H613.348V347.818H618.24V352.08H618.564C619.166 350.693 620.109 349.58 621.393 348.739C622.689 347.898 624.32 347.477 626.286 347.477C628.07 347.477 629.632 347.852 630.973 348.602C632.314 349.341 633.354 350.443 634.092 351.909C634.831 353.375 635.2 355.187 635.2 357.347V374H630.104V357.96C630.104 356.062 629.609 354.58 628.621 353.511C627.632 352.432 626.274 351.892 624.547 351.892C623.365 351.892 622.314 352.148 621.393 352.659C620.484 353.17 619.763 353.92 619.229 354.909C618.706 355.886 618.445 357.068 618.445 358.455ZM651.837 374.511C649.723 374.511 647.837 373.972 646.178 372.892C644.53 371.801 643.234 370.25 642.291 368.239C641.359 366.216 640.893 363.79 640.893 360.96C640.893 358.131 641.365 355.71 642.308 353.699C643.263 351.687 644.57 350.148 646.229 349.08C647.888 348.011 649.768 347.477 651.871 347.477C653.496 347.477 654.803 347.75 655.791 348.295C656.791 348.83 657.564 349.455 658.109 350.17C658.666 350.886 659.098 351.517 659.405 352.062H659.712V339.091H664.808V374H659.831V369.926H659.405C659.098 370.483 658.655 371.119 658.075 371.835C657.507 372.551 656.723 373.176 655.723 373.71C654.723 374.244 653.428 374.511 651.837 374.511ZM652.962 370.165C654.428 370.165 655.666 369.778 656.678 369.006C657.7 368.222 658.473 367.136 658.996 365.75C659.53 364.364 659.797 362.75 659.797 360.909C659.797 359.091 659.536 357.5 659.013 356.136C658.49 354.773 657.723 353.71 656.712 352.949C655.7 352.187 654.45 351.807 652.962 351.807C651.428 351.807 650.149 352.205 649.126 353C648.104 353.795 647.331 354.881 646.808 356.256C646.297 357.631 646.041 359.182 646.041 360.909C646.041 362.659 646.303 364.233 646.825 365.631C647.348 367.028 648.121 368.136 649.143 368.955C650.178 369.761 651.45 370.165 652.962 370.165Z" fill="black"/>
<path d="M228.875 104.261C228.693 102.648 227.943 101.398 226.625 100.511C225.307 99.6136 223.648 99.1648 221.648 99.1648C220.216 99.1648 218.977 99.392 217.932 99.8466C216.886 100.29 216.074 100.903 215.494 101.688C214.926 102.46 214.642 103.341 214.642 104.33C214.642 105.159 214.835 105.875 215.222 106.477C215.619 107.08 216.136 107.585 216.773 107.994C217.42 108.392 218.114 108.727 218.852 109C219.591 109.261 220.301 109.477 220.983 109.648L224.392 110.534C225.506 110.807 226.648 111.176 227.818 111.642C228.989 112.108 230.074 112.722 231.074 113.483C232.074 114.244 232.881 115.188 233.494 116.312C234.119 117.438 234.432 118.784 234.432 120.352C234.432 122.33 233.92 124.085 232.898 125.619C231.886 127.153 230.415 128.364 228.483 129.25C226.563 130.136 224.239 130.58 221.511 130.58C218.898 130.58 216.636 130.165 214.727 129.335C212.818 128.506 211.324 127.33 210.244 125.807C209.165 124.273 208.568 122.455 208.455 120.352H213.739C213.841 121.614 214.25 122.665 214.966 123.506C215.693 124.335 216.619 124.955 217.744 125.364C218.881 125.761 220.125 125.96 221.477 125.96C222.966 125.96 224.29 125.727 225.449 125.261C226.619 124.784 227.54 124.125 228.21 123.284C228.881 122.432 229.216 121.437 229.216 120.301C229.216 119.267 228.92 118.42 228.33 117.761C227.75 117.102 226.96 116.557 225.96 116.125C224.972 115.693 223.852 115.312 222.602 114.983L218.477 113.858C215.682 113.097 213.466 111.977 211.83 110.5C210.205 109.023 209.392 107.068 209.392 104.636C209.392 102.625 209.938 100.869 211.028 99.3693C212.119 97.8693 213.597 96.7045 215.46 95.875C217.324 95.0341 219.426 94.6136 221.767 94.6136C224.131 94.6136 226.216 95.0284 228.023 95.858C229.841 96.6875 231.273 97.8295 232.318 99.2841C233.364 100.727 233.909 102.386 233.955 104.261H228.875ZM252.538 103.818V107.909H238.237V103.818H252.538ZM242.072 97.5455H247.169V122.312C247.169 123.301 247.317 124.045 247.612 124.545C247.908 125.034 248.288 125.369 248.754 125.551C249.232 125.722 249.749 125.807 250.305 125.807C250.714 125.807 251.072 125.778 251.379 125.722C251.686 125.665 251.925 125.619 252.095 125.585L253.016 129.795C252.72 129.909 252.3 130.023 251.754 130.136C251.209 130.261 250.527 130.33 249.709 130.341C248.368 130.364 247.118 130.125 245.959 129.625C244.8 129.125 243.862 128.352 243.146 127.307C242.43 126.261 242.072 124.949 242.072 123.369V97.5455ZM258.176 130V103.818H263.102V107.977H263.375C263.852 106.568 264.693 105.46 265.898 104.653C267.114 103.835 268.489 103.426 270.023 103.426C270.341 103.426 270.716 103.437 271.148 103.46C271.591 103.483 271.938 103.511 272.188 103.545V108.42C271.983 108.364 271.619 108.301 271.097 108.233C270.574 108.153 270.051 108.114 269.528 108.114C268.324 108.114 267.25 108.369 266.307 108.881C265.375 109.381 264.636 110.08 264.091 110.977C263.545 111.864 263.273 112.875 263.273 114.011V130H258.176ZM283.983 130.58C282.324 130.58 280.824 130.273 279.483 129.659C278.142 129.034 277.08 128.131 276.295 126.949C275.523 125.767 275.136 124.318 275.136 122.602C275.136 121.125 275.42 119.909 275.989 118.955C276.557 118 277.324 117.244 278.29 116.688C279.256 116.131 280.335 115.71 281.528 115.426C282.722 115.142 283.938 114.926 285.176 114.778C286.744 114.597 288.017 114.449 288.994 114.335C289.972 114.21 290.682 114.011 291.125 113.739C291.568 113.466 291.79 113.023 291.79 112.409V112.29C291.79 110.801 291.369 109.648 290.528 108.83C289.699 108.011 288.46 107.602 286.812 107.602C285.097 107.602 283.744 107.983 282.756 108.744C281.778 109.494 281.102 110.33 280.727 111.25L275.938 110.159C276.506 108.568 277.335 107.284 278.426 106.307C279.528 105.318 280.795 104.602 282.227 104.159C283.659 103.705 285.165 103.477 286.744 103.477C287.79 103.477 288.898 103.602 290.068 103.852C291.25 104.091 292.352 104.534 293.375 105.182C294.409 105.83 295.256 106.756 295.915 107.96C296.574 109.153 296.903 110.705 296.903 112.614V130H291.926V126.42H291.722C291.392 127.08 290.898 127.727 290.239 128.364C289.58 129 288.733 129.528 287.699 129.949C286.665 130.369 285.426 130.58 283.983 130.58ZM285.091 126.489C286.5 126.489 287.705 126.21 288.705 125.653C289.716 125.097 290.483 124.369 291.006 123.472C291.54 122.562 291.807 121.591 291.807 120.557V117.182C291.625 117.364 291.273 117.534 290.75 117.693C290.239 117.841 289.653 117.972 288.994 118.085C288.335 118.187 287.693 118.284 287.068 118.375C286.443 118.455 285.92 118.523 285.5 118.58C284.511 118.705 283.608 118.915 282.79 119.21C281.983 119.506 281.335 119.932 280.847 120.489C280.369 121.034 280.131 121.761 280.131 122.67C280.131 123.932 280.597 124.886 281.528 125.534C282.46 126.17 283.648 126.489 285.091 126.489ZM315.913 103.818V107.909H301.612V103.818H315.913ZM305.447 97.5455H310.544V122.312C310.544 123.301 310.692 124.045 310.987 124.545C311.283 125.034 311.663 125.369 312.129 125.551C312.607 125.722 313.124 125.807 313.68 125.807C314.089 125.807 314.447 125.778 314.754 125.722C315.061 125.665 315.3 125.619 315.47 125.585L316.391 129.795C316.095 129.909 315.675 130.023 315.129 130.136C314.584 130.261 313.902 130.33 313.084 130.341C311.743 130.364 310.493 130.125 309.334 129.625C308.175 129.125 307.237 128.352 306.521 127.307C305.805 126.261 305.447 124.949 305.447 123.369V97.5455ZM332.554 130.528C329.974 130.528 327.753 129.977 325.889 128.875C324.037 127.761 322.605 126.199 321.594 124.188C320.594 122.165 320.094 119.795 320.094 117.08C320.094 114.398 320.594 112.034 321.594 109.989C322.605 107.943 324.014 106.347 325.821 105.199C327.639 104.051 329.764 103.477 332.196 103.477C333.673 103.477 335.105 103.722 336.491 104.21C337.878 104.699 339.122 105.466 340.224 106.511C341.327 107.557 342.196 108.915 342.832 110.585C343.469 112.244 343.787 114.261 343.787 116.636V118.443H322.974V114.625H338.793C338.793 113.284 338.52 112.097 337.974 111.062C337.429 110.017 336.662 109.193 335.673 108.591C334.696 107.989 333.548 107.688 332.23 107.688C330.798 107.688 329.548 108.04 328.48 108.744C327.423 109.437 326.605 110.347 326.026 111.472C325.457 112.585 325.173 113.795 325.173 115.102V118.085C325.173 119.835 325.48 121.324 326.094 122.551C326.719 123.778 327.588 124.716 328.702 125.364C329.815 126 331.116 126.318 332.605 126.318C333.571 126.318 334.452 126.182 335.247 125.909C336.043 125.625 336.73 125.205 337.31 124.648C337.889 124.091 338.332 123.403 338.639 122.585L343.463 123.455C343.077 124.875 342.384 126.119 341.384 127.188C340.395 128.244 339.151 129.068 337.651 129.659C336.162 130.239 334.463 130.528 332.554 130.528ZM360.419 140.364C358.339 140.364 356.55 140.091 355.05 139.545C353.561 139 352.345 138.278 351.402 137.381C350.459 136.483 349.754 135.5 349.288 134.432L353.669 132.625C353.976 133.125 354.385 133.653 354.896 134.21C355.419 134.778 356.124 135.261 357.01 135.659C357.908 136.057 359.061 136.256 360.47 136.256C362.402 136.256 363.999 135.784 365.26 134.841C366.521 133.909 367.152 132.42 367.152 130.375V125.227H366.828C366.521 125.784 366.078 126.403 365.499 127.085C364.93 127.767 364.146 128.358 363.146 128.858C362.146 129.358 360.845 129.608 359.243 129.608C357.175 129.608 355.311 129.125 353.652 128.159C352.004 127.182 350.697 125.744 349.732 123.847C348.777 121.937 348.3 119.591 348.3 116.807C348.3 114.023 348.771 111.636 349.714 109.648C350.669 107.659 351.976 106.136 353.635 105.08C355.294 104.011 357.175 103.477 359.277 103.477C360.902 103.477 362.214 103.75 363.214 104.295C364.214 104.83 364.993 105.455 365.55 106.17C366.118 106.886 366.555 107.517 366.862 108.062H367.237V103.818H372.232V130.58C372.232 132.83 371.709 134.676 370.663 136.119C369.618 137.563 368.203 138.631 366.419 139.324C364.646 140.017 362.646 140.364 360.419 140.364ZM360.368 125.381C361.834 125.381 363.072 125.04 364.084 124.358C365.107 123.665 365.879 122.676 366.402 121.392C366.936 120.097 367.203 118.545 367.203 116.739C367.203 114.977 366.942 113.426 366.419 112.085C365.896 110.744 365.129 109.699 364.118 108.949C363.107 108.187 361.857 107.807 360.368 107.807C358.834 107.807 357.555 108.205 356.533 109C355.51 109.784 354.737 110.852 354.214 112.205C353.703 113.557 353.447 115.068 353.447 116.739C353.447 118.455 353.709 119.96 354.232 121.256C354.754 122.551 355.527 123.562 356.55 124.29C357.584 125.017 358.857 125.381 360.368 125.381ZM382.288 139.818C381.527 139.818 380.834 139.756 380.209 139.631C379.584 139.517 379.118 139.392 378.811 139.256L380.038 135.08C380.97 135.33 381.8 135.438 382.527 135.403C383.254 135.369 383.896 135.097 384.453 134.585C385.021 134.074 385.521 133.239 385.953 132.08L386.584 130.341L377.004 103.818H382.459L389.089 124.136H389.362L395.993 103.818H401.464L390.675 133.494C390.175 134.858 389.538 136.011 388.766 136.955C387.993 137.909 387.072 138.625 386.004 139.102C384.936 139.58 383.697 139.818 382.288 139.818Z" fill="black"/>
<path d="M794.835 371V336.091H807.278C809.994 336.091 812.244 336.585 814.028 337.574C815.813 338.562 817.148 339.915 818.034 341.631C818.92 343.335 819.364 345.256 819.364 347.392C819.364 349.54 818.915 351.472 818.017 353.188C817.131 354.892 815.79 356.244 813.994 357.244C812.21 358.233 809.966 358.727 807.261 358.727H798.705V354.261H806.784C808.5 354.261 809.892 353.966 810.96 353.375C812.028 352.773 812.812 351.955 813.312 350.92C813.812 349.886 814.062 348.71 814.062 347.392C814.062 346.074 813.812 344.903 813.312 343.881C812.812 342.858 812.023 342.057 810.943 341.477C809.875 340.898 808.466 340.608 806.716 340.608H800.102V371H794.835ZM825.129 371V344.818H830.055V348.977H830.328C830.805 347.568 831.646 346.46 832.851 345.653C834.067 344.835 835.442 344.426 836.976 344.426C837.294 344.426 837.669 344.437 838.101 344.46C838.544 344.483 838.891 344.511 839.141 344.545V349.42C838.936 349.364 838.572 349.301 838.05 349.233C837.527 349.153 837.004 349.114 836.482 349.114C835.277 349.114 834.203 349.369 833.26 349.881C832.328 350.381 831.589 351.08 831.044 351.977C830.499 352.864 830.226 353.875 830.226 355.011V371H825.129ZM853.642 371.528C851.188 371.528 849.045 370.966 847.216 369.841C845.386 368.716 843.966 367.142 842.955 365.119C841.943 363.097 841.438 360.733 841.438 358.028C841.438 355.312 841.943 352.937 842.955 350.903C843.966 348.869 845.386 347.29 847.216 346.165C849.045 345.04 851.188 344.477 853.642 344.477C856.097 344.477 858.239 345.04 860.068 346.165C861.898 347.29 863.318 348.869 864.33 350.903C865.341 352.937 865.847 355.312 865.847 358.028C865.847 360.733 865.341 363.097 864.33 365.119C863.318 367.142 861.898 368.716 860.068 369.841C858.239 370.966 856.097 371.528 853.642 371.528ZM853.659 367.25C855.25 367.25 856.568 366.83 857.614 365.989C858.659 365.148 859.432 364.028 859.932 362.631C860.443 361.233 860.699 359.693 860.699 358.011C860.699 356.341 860.443 354.807 859.932 353.409C859.432 352 858.659 350.869 857.614 350.017C856.568 349.165 855.25 348.739 853.659 348.739C852.057 348.739 850.727 349.165 849.67 350.017C848.625 350.869 847.847 352 847.335 353.409C846.835 354.807 846.585 356.341 846.585 358.011C846.585 359.693 846.835 361.233 847.335 362.631C847.847 364.028 848.625 365.148 849.67 365.989C850.727 366.83 852.057 367.25 853.659 367.25ZM881.337 371.511C879.223 371.511 877.337 370.972 875.678 369.892C874.03 368.801 872.734 367.25 871.791 365.239C870.859 363.216 870.393 360.79 870.393 357.96C870.393 355.131 870.865 352.71 871.808 350.699C872.763 348.687 874.07 347.148 875.729 346.08C877.388 345.011 879.268 344.477 881.371 344.477C882.996 344.477 884.303 344.75 885.291 345.295C886.291 345.83 887.064 346.455 887.609 347.17C888.166 347.886 888.598 348.517 888.905 349.062H889.212V336.091H894.308V371H889.331V366.926H888.905C888.598 367.483 888.155 368.119 887.575 368.835C887.007 369.551 886.223 370.176 885.223 370.71C884.223 371.244 882.928 371.511 881.337 371.511ZM882.462 367.165C883.928 367.165 885.166 366.778 886.178 366.006C887.2 365.222 887.973 364.136 888.496 362.75C889.03 361.364 889.297 359.75 889.297 357.909C889.297 356.091 889.036 354.5 888.513 353.136C887.99 351.773 887.223 350.71 886.212 349.949C885.2 349.187 883.95 348.807 882.462 348.807C880.928 348.807 879.649 349.205 878.626 350C877.604 350.795 876.831 351.881 876.308 353.256C875.797 354.631 875.541 356.182 875.541 357.909C875.541 359.659 875.803 361.233 876.325 362.631C876.848 364.028 877.621 365.136 878.643 365.955C879.678 366.761 880.95 367.165 882.462 367.165ZM918.168 360.142V344.818H923.281V371H918.27V366.466H917.997C917.395 367.864 916.429 369.028 915.099 369.96C913.781 370.881 912.139 371.341 910.173 371.341C908.491 371.341 907.003 370.972 905.707 370.233C904.423 369.483 903.412 368.375 902.673 366.909C901.946 365.443 901.582 363.631 901.582 361.472V344.818H906.679V360.858C906.679 362.642 907.173 364.062 908.162 365.119C909.151 366.176 910.435 366.705 912.014 366.705C912.969 366.705 913.918 366.466 914.861 365.989C915.815 365.511 916.605 364.79 917.23 363.824C917.866 362.858 918.179 361.631 918.168 360.142ZM941.158 371.528C938.624 371.528 936.442 370.955 934.612 369.807C932.794 368.648 931.396 367.051 930.419 365.017C929.442 362.983 928.953 360.653 928.953 358.028C928.953 355.369 929.453 353.023 930.453 350.989C931.453 348.943 932.862 347.347 934.68 346.199C936.499 345.051 938.641 344.477 941.107 344.477C943.095 344.477 944.868 344.847 946.425 345.585C947.982 346.312 949.237 347.335 950.192 348.653C951.158 349.972 951.732 351.511 951.913 353.273H946.953C946.68 352.045 946.055 350.989 945.078 350.102C944.112 349.216 942.817 348.773 941.192 348.773C939.771 348.773 938.527 349.148 937.459 349.898C936.402 350.636 935.578 351.693 934.987 353.068C934.396 354.432 934.101 356.045 934.101 357.909C934.101 359.818 934.391 361.466 934.97 362.852C935.55 364.239 936.368 365.312 937.425 366.074C938.493 366.835 939.749 367.216 941.192 367.216C942.158 367.216 943.033 367.04 943.817 366.688C944.612 366.324 945.277 365.807 945.811 365.136C946.357 364.466 946.737 363.659 946.953 362.716H951.913C951.732 364.409 951.18 365.92 950.26 367.25C949.339 368.58 948.107 369.625 946.561 370.386C945.027 371.148 943.226 371.528 941.158 371.528ZM969.585 344.818V348.909H955.284V344.818H969.585ZM959.119 338.545H964.216V363.312C964.216 364.301 964.364 365.045 964.659 365.545C964.955 366.034 965.335 366.369 965.801 366.551C966.278 366.722 966.795 366.807 967.352 366.807C967.761 366.807 968.119 366.778 968.426 366.722C968.733 366.665 968.972 366.619 969.142 366.585L970.062 370.795C969.767 370.909 969.347 371.023 968.801 371.136C968.256 371.261 967.574 371.33 966.756 371.341C965.415 371.364 964.165 371.125 963.006 370.625C961.847 370.125 960.909 369.352 960.193 368.307C959.477 367.261 959.119 365.949 959.119 364.369V338.545Z" fill="black"/>
<path d="M766.136 133H754.835V98.0909H766.494C769.915 98.0909 772.852 98.7898 775.307 100.188C777.761 101.574 779.642 103.568 780.949 106.17C782.267 108.761 782.926 111.869 782.926 115.494C782.926 119.131 782.261 122.256 780.932 124.869C779.614 127.483 777.705 129.494 775.205 130.903C772.705 132.301 769.682 133 766.136 133ZM760.102 128.398H765.847C768.506 128.398 770.716 127.898 772.477 126.898C774.239 125.886 775.557 124.426 776.432 122.517C777.307 120.597 777.744 118.256 777.744 115.494C777.744 112.756 777.307 110.432 776.432 108.523C775.568 106.614 774.278 105.165 772.562 104.176C770.847 103.187 768.716 102.693 766.17 102.693H760.102V128.398ZM800.351 133.528C797.771 133.528 795.55 132.977 793.686 131.875C791.834 130.761 790.402 129.199 789.391 127.188C788.391 125.165 787.891 122.795 787.891 120.08C787.891 117.398 788.391 115.034 789.391 112.989C790.402 110.943 791.811 109.347 793.618 108.199C795.436 107.051 797.561 106.477 799.993 106.477C801.47 106.477 802.902 106.722 804.288 107.21C805.675 107.699 806.919 108.466 808.021 109.511C809.124 110.557 809.993 111.915 810.629 113.585C811.266 115.244 811.584 117.261 811.584 119.636V121.443H790.771V117.625H806.589C806.589 116.284 806.317 115.097 805.771 114.062C805.226 113.017 804.459 112.193 803.47 111.591C802.493 110.989 801.345 110.688 800.027 110.688C798.595 110.688 797.345 111.04 796.277 111.744C795.22 112.437 794.402 113.347 793.822 114.472C793.254 115.585 792.97 116.795 792.97 118.102V121.085C792.97 122.835 793.277 124.324 793.891 125.551C794.516 126.778 795.385 127.716 796.499 128.364C797.612 129 798.913 129.318 800.402 129.318C801.368 129.318 802.249 129.182 803.044 128.909C803.839 128.625 804.527 128.205 805.107 127.648C805.686 127.091 806.129 126.403 806.436 125.585L811.26 126.455C810.874 127.875 810.18 129.119 809.18 130.188C808.192 131.244 806.947 132.068 805.447 132.659C803.959 133.239 802.26 133.528 800.351 133.528ZM838.886 106.818L829.392 133H823.938L814.426 106.818H819.898L826.528 126.966H826.801L833.415 106.818H838.886ZM854.07 133.528C851.49 133.528 849.268 132.977 847.405 131.875C845.553 130.761 844.121 129.199 843.109 127.188C842.109 125.165 841.609 122.795 841.609 120.08C841.609 117.398 842.109 115.034 843.109 112.989C844.121 110.943 845.53 109.347 847.337 108.199C849.155 107.051 851.28 106.477 853.712 106.477C855.189 106.477 856.621 106.722 858.007 107.21C859.393 107.699 860.638 108.466 861.74 109.511C862.842 110.557 863.712 111.915 864.348 113.585C864.984 115.244 865.303 117.261 865.303 119.636V121.443H844.49V117.625H860.308C860.308 116.284 860.036 115.097 859.49 114.062C858.945 113.017 858.178 112.193 857.189 111.591C856.212 110.989 855.064 110.688 853.746 110.688C852.314 110.688 851.064 111.04 849.996 111.744C848.939 112.437 848.121 113.347 847.541 114.472C846.973 115.585 846.689 116.795 846.689 118.102V121.085C846.689 122.835 846.996 124.324 847.609 125.551C848.234 126.778 849.104 127.716 850.217 128.364C851.331 129 852.632 129.318 854.121 129.318C855.087 129.318 855.967 129.182 856.763 128.909C857.558 128.625 858.246 128.205 858.825 127.648C859.405 127.091 859.848 126.403 860.155 125.585L864.979 126.455C864.592 127.875 863.899 129.119 862.899 130.188C861.911 131.244 860.666 132.068 859.166 132.659C857.678 133.239 855.979 133.528 854.07 133.528ZM876.054 98.0909V133H870.957V98.0909H876.054ZM893.939 133.528C891.484 133.528 889.342 132.966 887.513 131.841C885.683 130.716 884.263 129.142 883.251 127.119C882.24 125.097 881.734 122.733 881.734 120.028C881.734 117.312 882.24 114.937 883.251 112.903C884.263 110.869 885.683 109.29 887.513 108.165C889.342 107.04 891.484 106.477 893.939 106.477C896.393 106.477 898.536 107.04 900.365 108.165C902.195 109.29 903.615 110.869 904.626 112.903C905.638 114.937 906.143 117.312 906.143 120.028C906.143 122.733 905.638 125.097 904.626 127.119C903.615 129.142 902.195 130.716 900.365 131.841C898.536 132.966 896.393 133.528 893.939 133.528ZM893.956 129.25C895.547 129.25 896.865 128.83 897.911 127.989C898.956 127.148 899.729 126.028 900.229 124.631C900.74 123.233 900.996 121.693 900.996 120.011C900.996 118.341 900.74 116.807 900.229 115.409C899.729 114 898.956 112.869 897.911 112.017C896.865 111.165 895.547 110.739 893.956 110.739C892.354 110.739 891.024 111.165 889.967 112.017C888.922 112.869 888.143 114 887.632 115.409C887.132 116.807 886.882 118.341 886.882 120.011C886.882 121.693 887.132 123.233 887.632 124.631C888.143 126.028 888.922 127.148 889.967 127.989C891.024 128.83 892.354 129.25 893.956 129.25ZM911.832 142.818V106.818H916.81V111.062H917.236C917.531 110.517 917.957 109.886 918.514 109.17C919.071 108.455 919.844 107.83 920.832 107.295C921.821 106.75 923.128 106.477 924.753 106.477C926.866 106.477 928.753 107.011 930.412 108.08C932.071 109.148 933.372 110.687 934.315 112.699C935.27 114.71 935.747 117.131 935.747 119.96C935.747 122.79 935.276 125.216 934.332 127.239C933.389 129.25 932.094 130.801 930.446 131.892C928.798 132.972 926.918 133.511 924.804 133.511C923.213 133.511 921.912 133.244 920.901 132.71C919.901 132.176 919.116 131.551 918.548 130.835C917.98 130.119 917.543 129.483 917.236 128.926H916.929V142.818H911.832ZM916.827 119.909C916.827 121.75 917.094 123.364 917.628 124.75C918.162 126.136 918.935 127.222 919.946 128.006C920.957 128.778 922.196 129.165 923.662 129.165C925.185 129.165 926.457 128.761 927.48 127.955C928.503 127.136 929.276 126.028 929.798 124.631C930.332 123.233 930.599 121.659 930.599 119.909C930.599 118.182 930.338 116.631 929.815 115.256C929.304 113.881 928.531 112.795 927.497 112C926.474 111.205 925.196 110.807 923.662 110.807C922.185 110.807 920.935 111.187 919.912 111.949C918.901 112.71 918.134 113.773 917.611 115.136C917.088 116.5 916.827 118.091 916.827 119.909ZM941.457 133V106.818H946.349V111.08H946.673C947.219 109.636 948.111 108.511 949.349 107.705C950.588 106.886 952.071 106.477 953.798 106.477C955.548 106.477 957.014 106.886 958.196 107.705C959.389 108.523 960.27 109.648 960.838 111.08H961.111C961.736 109.682 962.73 108.568 964.094 107.739C965.457 106.898 967.082 106.477 968.969 106.477C971.344 106.477 973.281 107.222 974.781 108.71C976.293 110.199 977.048 112.443 977.048 115.443V133H971.952V115.92C971.952 114.148 971.469 112.864 970.503 112.068C969.537 111.273 968.384 110.875 967.043 110.875C965.384 110.875 964.094 111.386 963.173 112.409C962.253 113.42 961.793 114.722 961.793 116.312V133H956.713V115.597C956.713 114.176 956.27 113.034 955.384 112.17C954.497 111.307 953.344 110.875 951.923 110.875C950.957 110.875 950.065 111.131 949.247 111.642C948.44 112.142 947.787 112.841 947.287 113.739C946.798 114.636 946.554 115.676 946.554 116.858V133H941.457ZM995.163 133.528C992.584 133.528 990.362 132.977 988.499 131.875C986.646 130.761 985.214 129.199 984.203 127.188C983.203 125.165 982.703 122.795 982.703 120.08C982.703 117.398 983.203 115.034 984.203 112.989C985.214 110.943 986.624 109.347 988.43 108.199C990.249 107.051 992.374 106.477 994.805 106.477C996.283 106.477 997.714 106.722 999.101 107.21C1000.49 107.699 1001.73 108.466 1002.83 109.511C1003.94 110.557 1004.81 111.915 1005.44 113.585C1006.08 115.244 1006.4 117.261 1006.4 119.636V121.443H985.584V117.625H1001.4C1001.4 116.284 1001.13 115.097 1000.58 114.062C1000.04 113.017 999.271 112.193 998.283 111.591C997.305 110.989 996.158 110.688 994.839 110.688C993.408 110.688 992.158 111.04 991.089 111.744C990.033 112.437 989.214 113.347 988.635 114.472C988.067 115.585 987.783 116.795 987.783 118.102V121.085C987.783 122.835 988.089 124.324 988.703 125.551C989.328 126.778 990.197 127.716 991.311 128.364C992.425 129 993.726 129.318 995.214 129.318C996.18 129.318 997.061 129.182 997.857 128.909C998.652 128.625 999.339 128.205 999.919 127.648C1000.5 127.091 1000.94 126.403 1001.25 125.585L1006.07 126.455C1005.69 127.875 1004.99 129.119 1003.99 130.188C1003 131.244 1001.76 132.068 1000.26 132.659C998.771 133.239 997.072 133.528 995.163 133.528ZM1017.15 117.455V133H1012.05V106.818H1016.94V111.08H1017.27C1017.87 109.693 1018.81 108.58 1020.1 107.739C1021.39 106.898 1023.02 106.477 1024.99 106.477C1026.77 106.477 1028.34 106.852 1029.68 107.602C1031.02 108.341 1032.06 109.443 1032.8 110.909C1033.53 112.375 1033.9 114.187 1033.9 116.347V133H1028.81V116.96C1028.81 115.062 1028.31 113.58 1027.32 112.511C1026.34 111.432 1024.98 110.892 1023.25 110.892C1022.07 110.892 1021.02 111.148 1020.1 111.659C1019.19 112.17 1018.47 112.92 1017.93 113.909C1017.41 114.886 1017.15 116.068 1017.15 117.455ZM1052.96 106.818V110.909H1038.66V106.818H1052.96ZM1042.49 100.545H1047.59V125.312C1047.59 126.301 1047.74 127.045 1048.03 127.545C1048.33 128.034 1048.71 128.369 1049.18 128.551C1049.65 128.722 1050.17 128.807 1050.73 128.807C1051.14 128.807 1051.49 128.778 1051.8 128.722C1052.11 128.665 1052.35 128.619 1052.52 128.585L1053.44 132.795C1053.14 132.909 1052.72 133.023 1052.18 133.136C1051.63 133.261 1050.95 133.33 1050.13 133.341C1048.79 133.364 1047.54 133.125 1046.38 132.625C1045.22 132.125 1044.28 131.352 1043.57 130.307C1042.85 129.261 1042.49 127.949 1042.49 126.369V100.545Z" fill="black"/>
<path d="M496.136 132H484.835V97.0909H496.494C499.915 97.0909 502.852 97.7898 505.307 99.1875C507.761 100.574 509.642 102.568 510.949 105.17C512.267 107.761 512.926 110.869 512.926 114.494C512.926 118.131 512.261 121.256 510.932 123.869C509.614 126.483 507.705 128.494 505.205 129.903C502.705 131.301 499.682 132 496.136 132ZM490.102 127.398H495.847C498.506 127.398 500.716 126.898 502.477 125.898C504.239 124.886 505.557 123.426 506.432 121.517C507.307 119.597 507.744 117.256 507.744 114.494C507.744 111.756 507.307 109.432 506.432 107.523C505.568 105.614 504.278 104.165 502.562 103.176C500.847 102.187 498.716 101.693 496.17 101.693H490.102V127.398ZM530.351 132.528C527.771 132.528 525.55 131.977 523.686 130.875C521.834 129.761 520.402 128.199 519.391 126.188C518.391 124.165 517.891 121.795 517.891 119.08C517.891 116.398 518.391 114.034 519.391 111.989C520.402 109.943 521.811 108.347 523.618 107.199C525.436 106.051 527.561 105.477 529.993 105.477C531.47 105.477 532.902 105.722 534.288 106.21C535.675 106.699 536.919 107.466 538.021 108.511C539.124 109.557 539.993 110.915 540.629 112.585C541.266 114.244 541.584 116.261 541.584 118.636V120.443H520.771V116.625H536.589C536.589 115.284 536.317 114.097 535.771 113.062C535.226 112.017 534.459 111.193 533.47 110.591C532.493 109.989 531.345 109.688 530.027 109.688C528.595 109.688 527.345 110.04 526.277 110.744C525.22 111.437 524.402 112.347 523.822 113.472C523.254 114.585 522.97 115.795 522.97 117.102V120.085C522.97 121.835 523.277 123.324 523.891 124.551C524.516 125.778 525.385 126.716 526.499 127.364C527.612 128 528.913 128.318 530.402 128.318C531.368 128.318 532.249 128.182 533.044 127.909C533.839 127.625 534.527 127.205 535.107 126.648C535.686 126.091 536.129 125.403 536.436 124.585L541.26 125.455C540.874 126.875 540.18 128.119 539.18 129.188C538.192 130.244 536.947 131.068 535.447 131.659C533.959 132.239 532.26 132.528 530.351 132.528ZM566.858 112.21L562.239 113.028C562.045 112.437 561.739 111.875 561.318 111.341C560.909 110.807 560.352 110.369 559.648 110.028C558.943 109.687 558.063 109.517 557.006 109.517C555.563 109.517 554.358 109.841 553.392 110.489C552.426 111.125 551.943 111.949 551.943 112.96C551.943 113.835 552.267 114.54 552.915 115.074C553.563 115.608 554.608 116.045 556.051 116.386L560.21 117.341C562.619 117.898 564.415 118.756 565.597 119.915C566.778 121.074 567.369 122.58 567.369 124.432C567.369 126 566.915 127.398 566.006 128.625C565.108 129.841 563.852 130.795 562.239 131.489C560.636 132.182 558.778 132.528 556.665 132.528C553.733 132.528 551.341 131.903 549.489 130.653C547.636 129.392 546.5 127.602 546.08 125.284L551.006 124.534C551.313 125.818 551.943 126.79 552.898 127.449C553.852 128.097 555.097 128.42 556.631 128.42C558.301 128.42 559.636 128.074 560.636 127.381C561.636 126.676 562.136 125.818 562.136 124.807C562.136 123.989 561.83 123.301 561.216 122.744C560.614 122.187 559.688 121.767 558.438 121.483L554.006 120.511C551.563 119.955 549.756 119.068 548.585 117.852C547.426 116.636 546.847 115.097 546.847 113.233C546.847 111.687 547.278 110.335 548.142 109.176C549.006 108.017 550.199 107.114 551.722 106.466C553.244 105.807 554.989 105.477 556.955 105.477C559.784 105.477 562.011 106.091 563.636 107.318C565.261 108.534 566.335 110.165 566.858 112.21ZM572.973 132V105.818H578.07V132H572.973ZM575.547 101.778C574.661 101.778 573.899 101.483 573.263 100.892C572.638 100.29 572.325 99.5739 572.325 98.7443C572.325 97.9034 572.638 97.1875 573.263 96.5966C573.899 95.9943 574.661 95.6932 575.547 95.6932C576.433 95.6932 577.189 95.9943 577.814 96.5966C578.45 97.1875 578.768 97.9034 578.768 98.7443C578.768 99.5739 578.45 100.29 577.814 100.892C577.189 101.483 576.433 101.778 575.547 101.778ZM595.903 142.364C593.824 142.364 592.034 142.091 590.534 141.545C589.045 141 587.83 140.278 586.886 139.381C585.943 138.483 585.239 137.5 584.773 136.432L589.153 134.625C589.46 135.125 589.869 135.653 590.381 136.21C590.903 136.778 591.608 137.261 592.494 137.659C593.392 138.057 594.545 138.256 595.955 138.256C597.886 138.256 599.483 137.784 600.744 136.841C602.006 135.909 602.636 134.42 602.636 132.375V127.227H602.312C602.006 127.784 601.563 128.403 600.983 129.085C600.415 129.767 599.631 130.358 598.631 130.858C597.631 131.358 596.33 131.608 594.727 131.608C592.659 131.608 590.795 131.125 589.136 130.159C587.489 129.182 586.182 127.744 585.216 125.847C584.261 123.937 583.784 121.591 583.784 118.807C583.784 116.023 584.256 113.636 585.199 111.648C586.153 109.659 587.46 108.136 589.119 107.08C590.778 106.011 592.659 105.477 594.761 105.477C596.386 105.477 597.699 105.75 598.699 106.295C599.699 106.83 600.477 107.455 601.034 108.17C601.602 108.886 602.04 109.517 602.347 110.062H602.722V105.818H607.716V132.58C607.716 134.83 607.193 136.676 606.148 138.119C605.102 139.563 603.688 140.631 601.903 141.324C600.131 142.017 598.131 142.364 595.903 142.364ZM595.852 127.381C597.318 127.381 598.557 127.04 599.568 126.358C600.591 125.665 601.364 124.676 601.886 123.392C602.42 122.097 602.688 120.545 602.688 118.739C602.688 116.977 602.426 115.426 601.903 114.085C601.381 112.744 600.614 111.699 599.602 110.949C598.591 110.187 597.341 109.807 595.852 109.807C594.318 109.807 593.04 110.205 592.017 111C590.994 111.784 590.222 112.852 589.699 114.205C589.188 115.557 588.932 117.068 588.932 118.739C588.932 120.455 589.193 121.96 589.716 123.256C590.239 124.551 591.011 125.562 592.034 126.29C593.068 127.017 594.341 127.381 595.852 127.381ZM619.648 116.455V132H614.551V105.818H619.443V110.08H619.767C620.369 108.693 621.313 107.58 622.597 106.739C623.892 105.898 625.523 105.477 627.489 105.477C629.273 105.477 630.835 105.852 632.176 106.602C633.517 107.341 634.557 108.443 635.295 109.909C636.034 111.375 636.403 113.187 636.403 115.347V132H631.307V115.96C631.307 114.062 630.813 112.58 629.824 111.511C628.835 110.432 627.477 109.892 625.75 109.892C624.568 109.892 623.517 110.148 622.597 110.659C621.688 111.17 620.966 111.92 620.432 112.909C619.909 113.886 619.648 115.068 619.648 116.455Z" fill="black"/>
</g>
<path d="M257.835 370V335.091H270.278C272.983 335.091 275.227 335.557 277.011 336.489C278.807 337.42 280.148 338.71 281.034 340.358C281.92 341.994 282.364 343.886 282.364 346.034C282.364 348.17 281.915 350.051 281.017 351.676C280.131 353.29 278.79 354.545 276.994 355.443C275.21 356.341 272.966 356.79 270.261 356.79H260.835V352.256H269.784C271.489 352.256 272.875 352.011 273.943 351.523C275.023 351.034 275.812 350.324 276.312 349.392C276.812 348.46 277.062 347.341 277.062 346.034C277.062 344.716 276.807 343.574 276.295 342.608C275.795 341.642 275.006 340.903 273.926 340.392C272.858 339.869 271.455 339.608 269.716 339.608H263.102V370H257.835ZM275.068 354.25L283.693 370H277.693L269.239 354.25H275.068ZM299.32 370.528C296.74 370.528 294.518 369.977 292.655 368.875C290.803 367.761 289.371 366.199 288.359 364.188C287.359 362.165 286.859 359.795 286.859 357.08C286.859 354.398 287.359 352.034 288.359 349.989C289.371 347.943 290.78 346.347 292.587 345.199C294.405 344.051 296.53 343.477 298.962 343.477C300.439 343.477 301.871 343.722 303.257 344.21C304.643 344.699 305.888 345.466 306.99 346.511C308.092 347.557 308.962 348.915 309.598 350.585C310.234 352.244 310.553 354.261 310.553 356.636V358.443H289.74V354.625H305.558C305.558 353.284 305.286 352.097 304.74 351.062C304.195 350.017 303.428 349.193 302.439 348.591C301.462 347.989 300.314 347.688 298.996 347.688C297.564 347.688 296.314 348.04 295.246 348.744C294.189 349.437 293.371 350.347 292.791 351.472C292.223 352.585 291.939 353.795 291.939 355.102V358.085C291.939 359.835 292.246 361.324 292.859 362.551C293.484 363.778 294.354 364.716 295.467 365.364C296.581 366 297.882 366.318 299.371 366.318C300.337 366.318 301.217 366.182 302.013 365.909C302.808 365.625 303.496 365.205 304.075 364.648C304.655 364.091 305.098 363.403 305.405 362.585L310.229 363.455C309.842 364.875 309.149 366.119 308.149 367.188C307.161 368.244 305.916 369.068 304.416 369.659C302.928 370.239 301.229 370.528 299.32 370.528ZM335.827 350.21L331.207 351.028C331.014 350.437 330.707 349.875 330.287 349.341C329.878 348.807 329.321 348.369 328.616 348.028C327.912 347.687 327.031 347.517 325.974 347.517C324.531 347.517 323.327 347.841 322.361 348.489C321.395 349.125 320.912 349.949 320.912 350.96C320.912 351.835 321.236 352.54 321.884 353.074C322.531 353.608 323.577 354.045 325.02 354.386L329.179 355.341C331.588 355.898 333.384 356.756 334.565 357.915C335.747 359.074 336.338 360.58 336.338 362.432C336.338 364 335.884 365.398 334.974 366.625C334.077 367.841 332.821 368.795 331.207 369.489C329.605 370.182 327.747 370.528 325.634 370.528C322.702 370.528 320.31 369.903 318.457 368.653C316.605 367.392 315.469 365.602 315.048 363.284L319.974 362.534C320.281 363.818 320.912 364.79 321.866 365.449C322.821 366.097 324.065 366.42 325.599 366.42C327.27 366.42 328.605 366.074 329.605 365.381C330.605 364.676 331.105 363.818 331.105 362.807C331.105 361.989 330.798 361.301 330.185 360.744C329.582 360.187 328.656 359.767 327.406 359.483L322.974 358.511C320.531 357.955 318.724 357.068 317.554 355.852C316.395 354.636 315.815 353.097 315.815 351.233C315.815 349.687 316.247 348.335 317.111 347.176C317.974 346.017 319.168 345.114 320.69 344.466C322.213 343.807 323.957 343.477 325.923 343.477C328.753 343.477 330.98 344.091 332.605 345.318C334.23 346.534 335.304 348.165 335.827 350.21ZM353.226 370.528C350.646 370.528 348.425 369.977 346.561 368.875C344.709 367.761 343.277 366.199 342.266 364.188C341.266 362.165 340.766 359.795 340.766 357.08C340.766 354.398 341.266 352.034 342.266 349.989C343.277 347.943 344.686 346.347 346.493 345.199C348.311 344.051 350.436 343.477 352.868 343.477C354.345 343.477 355.777 343.722 357.163 344.21C358.55 344.699 359.794 345.466 360.896 346.511C361.999 347.557 362.868 348.915 363.504 350.585C364.141 352.244 364.459 354.261 364.459 356.636V358.443H343.646V354.625H359.464C359.464 353.284 359.192 352.097 358.646 351.062C358.101 350.017 357.334 349.193 356.345 348.591C355.368 347.989 354.22 347.688 352.902 347.688C351.47 347.688 350.22 348.04 349.152 348.744C348.095 349.437 347.277 350.347 346.697 351.472C346.129 352.585 345.845 353.795 345.845 355.102V358.085C345.845 359.835 346.152 361.324 346.766 362.551C347.391 363.778 348.26 364.716 349.374 365.364C350.487 366 351.788 366.318 353.277 366.318C354.243 366.318 355.124 366.182 355.919 365.909C356.714 365.625 357.402 365.205 357.982 364.648C358.561 364.091 359.004 363.403 359.311 362.585L364.135 363.455C363.749 364.875 363.055 366.119 362.055 367.188C361.067 368.244 359.822 369.068 358.322 369.659C356.834 370.239 355.135 370.528 353.226 370.528ZM377.733 370.58C376.074 370.58 374.574 370.273 373.233 369.659C371.892 369.034 370.83 368.131 370.045 366.949C369.273 365.767 368.886 364.318 368.886 362.602C368.886 361.125 369.17 359.909 369.739 358.955C370.307 358 371.074 357.244 372.04 356.688C373.006 356.131 374.085 355.71 375.278 355.426C376.472 355.142 377.688 354.926 378.926 354.778C380.494 354.597 381.767 354.449 382.744 354.335C383.722 354.21 384.432 354.011 384.875 353.739C385.318 353.466 385.54 353.023 385.54 352.409V352.29C385.54 350.801 385.119 349.648 384.278 348.83C383.449 348.011 382.21 347.602 380.562 347.602C378.847 347.602 377.494 347.983 376.506 348.744C375.528 349.494 374.852 350.33 374.477 351.25L369.688 350.159C370.256 348.568 371.085 347.284 372.176 346.307C373.278 345.318 374.545 344.602 375.977 344.159C377.409 343.705 378.915 343.477 380.494 343.477C381.54 343.477 382.648 343.602 383.818 343.852C385 344.091 386.102 344.534 387.125 345.182C388.159 345.83 389.006 346.756 389.665 347.96C390.324 349.153 390.653 350.705 390.653 352.614V370H385.676V366.42H385.472C385.142 367.08 384.648 367.727 383.989 368.364C383.33 369 382.483 369.528 381.449 369.949C380.415 370.369 379.176 370.58 377.733 370.58ZM378.841 366.489C380.25 366.489 381.455 366.21 382.455 365.653C383.466 365.097 384.233 364.369 384.756 363.472C385.29 362.562 385.557 361.591 385.557 360.557V357.182C385.375 357.364 385.023 357.534 384.5 357.693C383.989 357.841 383.403 357.972 382.744 358.085C382.085 358.187 381.443 358.284 380.818 358.375C380.193 358.455 379.67 358.523 379.25 358.58C378.261 358.705 377.358 358.915 376.54 359.21C375.733 359.506 375.085 359.932 374.597 360.489C374.119 361.034 373.881 361.761 373.881 362.67C373.881 363.932 374.347 364.886 375.278 365.534C376.21 366.17 377.398 366.489 378.841 366.489ZM397.442 370V343.818H402.368V347.977H402.641C403.118 346.568 403.959 345.46 405.163 344.653C406.379 343.835 407.754 343.426 409.288 343.426C409.607 343.426 409.982 343.437 410.413 343.46C410.857 343.483 411.203 343.511 411.453 343.545V348.42C411.249 348.364 410.885 348.301 410.362 348.233C409.839 348.153 409.317 348.114 408.794 348.114C407.589 348.114 406.516 348.369 405.572 348.881C404.641 349.381 403.902 350.08 403.357 350.977C402.811 351.864 402.538 352.875 402.538 354.011V370H397.442ZM425.955 370.528C423.42 370.528 421.239 369.955 419.409 368.807C417.591 367.648 416.193 366.051 415.216 364.017C414.239 361.983 413.75 359.653 413.75 357.028C413.75 354.369 414.25 352.023 415.25 349.989C416.25 347.943 417.659 346.347 419.477 345.199C421.295 344.051 423.438 343.477 425.903 343.477C427.892 343.477 429.665 343.847 431.222 344.585C432.778 345.312 434.034 346.335 434.989 347.653C435.955 348.972 436.528 350.511 436.71 352.273H431.75C431.477 351.045 430.852 349.989 429.875 349.102C428.909 348.216 427.614 347.773 425.989 347.773C424.568 347.773 423.324 348.148 422.256 348.898C421.199 349.636 420.375 350.693 419.784 352.068C419.193 353.432 418.898 355.045 418.898 356.909C418.898 358.818 419.188 360.466 419.767 361.852C420.347 363.239 421.165 364.312 422.222 365.074C423.29 365.835 424.545 366.216 425.989 366.216C426.955 366.216 427.83 366.04 428.614 365.688C429.409 365.324 430.074 364.807 430.608 364.136C431.153 363.466 431.534 362.659 431.75 361.716H436.71C436.528 363.409 435.977 364.92 435.057 366.25C434.136 367.58 432.903 368.625 431.358 369.386C429.824 370.148 428.023 370.528 425.955 370.528ZM447.257 354.455V370H442.161V335.091H447.189V348.08H447.513C448.126 346.67 449.064 345.551 450.325 344.722C451.587 343.892 453.234 343.477 455.268 343.477C457.064 343.477 458.632 343.847 459.973 344.585C461.325 345.324 462.371 346.426 463.109 347.892C463.859 349.347 464.234 351.165 464.234 353.347V370H459.138V353.96C459.138 352.04 458.643 350.551 457.655 349.494C456.666 348.426 455.291 347.892 453.53 347.892C452.325 347.892 451.246 348.148 450.291 348.659C449.348 349.17 448.604 349.92 448.058 350.909C447.524 351.886 447.257 353.068 447.257 354.455Z" fill="black"/>
<defs>
<clipPath id="clip0_150_4105">
<rect width="1280" height="484" fill="white"/>
</clipPath>
</defs>
</svg>
